<svg width="22" height="22" viewBox="0 0 22 22" fill="none" xmlns="http://www.w3.org/2000/svg">
<path d="M8.7998 16C8.91026 16 9 16.0897 9 16.2002V17.7998C9 17.9103 8.91026 18 8.7998 18H3.2002C3.08974 18 3 17.9103 3 17.7998V16.2002C3 16.0897 3.08974 16 3.2002 16H8.7998Z" fill="#222222"/>
<path d="M14.7998 10C14.9103 10 15 10.0897 15 10.2002V11.7998C15 11.9103 14.9103 12 14.7998 12H3.2002C3.08974 12 3 11.9103 3 11.7998V10.2002C3 10.0897 3.08974 10 3.2002 10H14.7998Z" fill="#222222"/>
<path d="M18.7998 4C18.9103 4 19 4.08974 19 4.2002V5.7998C19 5.91026 18.9103 6 18.7998 6H3.2002C3.08974 6 3 5.91026 3 5.7998V4.2002C3 4.08974 3.08974 4 3.2002 4H18.7998Z" fill="#222222"/>
</svg>
