<svg width="22" height="22" viewBox="0 0 22 22" fill="none" xmlns="http://www.w3.org/2000/svg">
<path d="M18.7998 16C18.9103 16 19 16.0897 19 16.2002V17.7998C19 17.9103 18.9103 18 18.7998 18H13.2002C13.0897 18 13 17.9103 13 17.7998V16.2002C13 16.0897 13.0897 16 13.2002 16H18.7998Z" fill="#222222"/>
<path d="M18.7998 10C18.9103 10 19 10.0897 19 10.2002V11.7998C19 11.9103 18.9103 12 18.7998 12H7.2002C7.08974 12 7 11.9103 7 11.7998V10.2002C7 10.0897 7.08974 10 7.2002 10H18.7998Z" fill="#222222"/>
<path d="M18.7998 4C18.9103 4 19 4.08974 19 4.2002V5.7998C19 5.91026 18.9103 6 18.7998 6H3.2002C3.08974 6 3 5.91026 3 5.7998V4.2002C3 4.08974 3.08974 4 3.2002 4H18.7998Z" fill="#222222"/>
</svg>
