<svg width="22" height="22" viewBox="0 0 22 22" fill="none" xmlns="http://www.w3.org/2000/svg">
<path d="M13.7998 16C13.9103 16 14 16.0897 14 16.2002V17.7998C14 17.9103 13.9103 18 13.7998 18H8.2002C8.08974 18 8 17.9103 8 17.7998V16.2002C8 16.0897 8.08974 16 8.2002 16H13.7998Z" fill="#222222"/>
<path d="M16.7998 10C16.9103 10 17 10.0897 17 10.2002V11.7998C17 11.9103 16.9103 12 16.7998 12H5.2002C5.08974 12 5 11.9103 5 11.7998V10.2002C5 10.0897 5.08974 10 5.2002 10H16.7998Z" fill="#222222"/>
<path d="M18.7998 4C18.9103 4 19 4.08974 19 4.2002V5.7998C19 5.91026 18.9103 6 18.7998 6H3.2002C3.08974 6 3 5.91026 3 5.7998V4.2002C3 4.08974 3.08974 4 3.2002 4H18.7998Z" fill="#222222"/>
</svg>
