<svg width="22" height="22" viewBox="0 0 22 22" fill="none" xmlns="http://www.w3.org/2000/svg">
<path d="M6.7 19C6.58954 19 6.5 18.9105 6.5 18.8V3.2C6.5 3.08954 6.58954 3 6.7 3H11.333C13.6513 3 15.3016 4.79946 15.3016 7.35772C15.3016 8.28494 14.894 9.34333 14.2683 10.1322C14.1935 10.2265 14.2109 10.3661 14.3105 10.4337L14.6336 10.6531C15.7141 11.4336 16.5 12.9946 16.5 14.4472C16.5 17.1138 14.8497 19 12.5118 19H6.7ZM12.2957 16.9837C13.5727 16.9837 14.4371 15.9648 14.4371 14.4688C14.4371 12.8428 13.5727 11.7588 12.2957 11.7588H8.78251C8.67206 11.7588 8.58251 11.8484 8.58251 11.9588V16.7837C8.58251 16.8942 8.67206 16.9837 8.78251 16.9837H12.2957ZM11.3723 9.76423C12.4921 9.69919 13.2583 8.78862 13.2583 7.46612C13.2583 5.99187 12.4136 5.01626 11.1562 5.01626H8.78251C8.67206 5.01626 8.58251 5.1058 8.58251 5.21626V9.56423C8.58251 9.67468 8.67206 9.76423 8.78251 9.76423H11.3723Z" fill="#222222"/>
</svg>
