<svg width="22" height="22" viewBox="0 0 22 22" fill="none" xmlns="http://www.w3.org/2000/svg">
<path d="M17.2931 3.29289C17.6836 2.90237 18.3166 2.90237 18.7071 3.29289C19.0975 3.68343 19.0976 4.31647 18.7071 4.70696L12.4142 10.9999L18.7071 17.2929C19.0975 17.6834 19.0976 18.3165 18.7071 18.707C18.3166 19.0974 17.6836 19.0973 17.2931 18.707L11.0001 12.414L4.70713 18.707C4.31664 19.0974 3.68359 19.0974 3.29306 18.707C2.90255 18.3164 2.90258 17.6834 3.29306 17.2929L9.58603 10.9999L3.29306 4.70696C2.90255 4.31644 2.90256 3.68342 3.29306 3.29289C3.68359 2.90237 4.3166 2.90237 4.70713 3.29289L11.0001 9.58586L17.2931 3.29289Z" fill="white"/>
</svg>
