<svg width="22" height="22" viewBox="0 0 22 22" fill="none" xmlns="http://www.w3.org/2000/svg">
<path fill-rule="evenodd" clip-rule="evenodd" d="M16.7793 8C16.8974 8.00017 16.9901 8.10218 16.9785 8.21973L16.1797 16.1992C16.0773 17.2214 15.2177 17.9998 14.1904 18H7.80957C6.78234 17.9998 5.92265 17.2214 5.82031 16.1992L5.02246 8.21973C5.01078 8.10215 5.10258 8.00019 5.2207 8H16.7793ZM8 16H9V10H8V16ZM10.5 16H11.5V10H10.5V16ZM13 16H14V10H13V16Z" fill="#222222"/>
<path d="M13.876 4C13.9517 4 14.0218 4.0426 14.0557 4.11035L14.5 5H17.7998C17.9103 5 18 5.08974 18 5.2002V6.7998C18 6.91026 17.9103 7 17.7998 7H4.2002C4.08974 7 4 6.91026 4 6.7998V5.2002C4 5.08974 4.08974 5 4.2002 5H7.5L7.94434 4.11035C7.97822 4.0426 8.04827 4 8.12402 4H13.876Z" fill="#222222"/>
</svg>
