<svg width="22" height="22" viewBox="0 0 22 22" fill="none" xmlns="http://www.w3.org/2000/svg">
<path fill-rule="evenodd" clip-rule="evenodd" d="M13 18H10.6602L10.4336 14.6055H6.77344L5.49023 18H3L8.66016 4H11.6982L13 18ZM9.52832 7.20312C9.36483 7.70164 9.1697 8.25758 8.94336 8.87109L7.49023 12.6494H10.3018L10.0566 8.89062C10.0063 8.2643 9.96852 7.70166 9.94336 7.20312C9.91822 6.69201 9.90529 6.32099 9.90527 6.09082C9.82978 6.32099 9.7043 6.69207 9.52832 7.20312Z" fill="#222222"/>
<path d="M14.2988 8C15.0116 8.00008 15.5614 8.1842 15.9473 8.55273C16.3449 8.90985 16.538 9.41093 16.5264 10.0537H16.5615L16.8066 8.17871H19L17.4746 18H15.3164L15.6143 16.125H15.5791C15.3803 16.7794 15.024 17.2855 14.5098 17.6426C14.316 17.7802 14.1061 17.89 13.8828 17.9746L13.7275 16.2471C13.7481 16.2475 13.769 16.25 13.79 16.25C14.3397 16.25 14.7957 16.0823 15.1582 15.749C15.5205 15.4038 15.7492 14.9282 15.8428 14.3213L16.2285 11.8564C16.3219 11.2497 16.2346 10.7795 15.9658 10.4463C15.7086 10.1011 15.3044 9.92876 14.7549 9.92871C14.1936 9.92875 13.7316 10.0955 13.3691 10.4287C13.3142 10.4809 13.2625 10.5374 13.2139 10.5967L13 8.23438C13.4006 8.07857 13.8337 8.00004 14.2988 8Z" fill="#222222"/>
</svg>
