<svg width="22" height="22" viewBox="0 0 22 22" fill="none" xmlns="http://www.w3.org/2000/svg">
<path d="M17.7906 8.85044C17.922 8.9443 18 9.09583 18 9.25731V17.5C18 17.7761 17.7761 18 17.5 18H13.5C13.2239 18 13 17.7761 13 17.5V12.5C13 12.2239 12.7761 12 12.5 12H9.5C9.22386 12 9 12.2239 9 12.5V17.5C9 17.7761 8.77614 18 8.5 18H4.5C4.22386 18 4 17.7761 4 17.5V9.25731C4 9.09583 4.07798 8.9443 4.20938 8.85044L10.7094 4.20758C10.8832 4.08341 11.1168 4.08341 11.2906 4.20759L17.7906 8.85044Z" fill="#222222"/>
</svg>
