<svg width="24" height="24" viewBox="0 0 24 24" fill="none" xmlns="http://www.w3.org/2000/svg">
<path d="M22 7.74902V10.0566L12 4.30664L2 10.0566V7.74902L12 2L22 7.74902Z" fill="black"/>
<path d="M20 7V21H13V14C13 13.8267 12.9394 13.5441 12.7881 13.334C12.6734 13.1749 12.4737 13 12 13C11.5263 13 11.3266 13.1749 11.2119 13.334C11.0606 13.5441 11 13.8267 11 14V21H4V7H6V19H9V14C9 13.5066 9.14019 12.7892 9.58887 12.166C10.0743 11.4919 10.8741 11 12 11C13.1259 11 13.9257 11.4919 14.4111 12.166C14.8598 12.7892 15 13.5066 15 14V19H18V7H20Z" fill="black"/>
</svg>
