<svg width="56" height="56" viewBox="0 0 56 56" fill="none" xmlns="http://www.w3.org/2000/svg">
<path fill-rule="evenodd" clip-rule="evenodd" d="M43.2727 7.63623C46.0843 7.63623 48.3636 9.91551 48.3636 12.7271V43.2726C48.3636 46.0842 46.0843 48.3635 43.2727 48.3635H12.7273C9.91563 48.3635 7.63635 46.0842 7.63635 43.2726V12.7271C7.63635 9.91551 9.91563 7.63623 12.7273 7.63623H43.2727ZM36.2727 26.0908C35.9098 25.7279 35.3332 25.6915 34.9279 26.0063L13.8981 42.3628C13.5165 42.6606 13.7269 43.2726 14.2113 43.2726H42.7631C43.0443 43.2726 43.2727 43.0442 43.2727 42.763V33.3021C43.2727 33.167 43.219 33.0371 43.1236 32.9416L36.2727 26.0908ZM19.516 12.7271C15.7671 12.7271 12.7273 15.767 12.7273 19.5158C12.7277 23.2643 15.7674 26.3021 19.516 26.3021C23.2642 26.3016 26.3017 23.264 26.3022 19.5158C26.3022 15.7673 23.2644 12.7276 19.516 12.7271Z" fill="black"/>
</svg>
