<svg width="20" height="20" viewBox="0 0 20 20" fill="none" xmlns="http://www.w3.org/2000/svg">
<g clip-path="url(#clip0_231_524)">
<path d="M12.5 5.83325H15C15.5472 5.83325 16.089 5.94103 16.5946 6.15042C17.1001 6.35982 17.5594 6.66673 17.9463 7.05364C18.3332 7.44055 18.6401 7.89988 18.8495 8.4054C19.0589 8.91093 19.1667 9.45274 19.1667 9.99992C19.1667 10.5471 19.0589 11.0889 18.8495 11.5944C18.6401 12.1 18.3332 12.5593 17.9463 12.9462C17.5594 13.3331 17.1001 13.64 16.5946 13.8494C16.089 14.0588 15.5472 14.1666 15 14.1666H12.5M7.50004 14.1666H5.00004C4.45287 14.1666 3.91105 14.0588 3.40553 13.8494C2.9 13.64 2.44067 13.3331 2.05376 12.9462C1.27236 12.1648 0.833374 11.105 0.833374 9.99992C0.833374 8.89485 1.27236 7.83504 2.05376 7.05364C2.83516 6.27224 3.89497 5.83325 5.00004 5.83325H7.50004M6.66671 9.99992H13.3334" stroke="#1E1E1E" stroke-width="2" stroke-linecap="round" stroke-linejoin="round"/>
</g>
<defs>
<clipPath id="clip0_231_524">
<rect width="20" height="20" fill="white"/>
</clipPath>
</defs>
</svg>
