<svg width="10" height="10" viewBox="0 0 10 10" fill="none" xmlns="http://www.w3.org/2000/svg">
<path d="M1.4142 4.94975L2.687 3.67696C2.7651 3.59885 2.89173 3.59885 2.96984 3.67696L3.3941 4.10122C3.47221 4.17932 3.47221 4.30596 3.3941 4.38406L2.12131 5.65685C1.73079 6.04738 1.73079 6.68054 2.12131 7.07107C2.51184 7.46159 3.145 7.46159 3.53553 7.07107L4.80832 5.79828C4.88642 5.72017 5.01306 5.72017 5.09116 5.79828L5.51542 6.22254C5.59353 6.30064 5.59353 6.42728 5.51542 6.50538L4.24263 7.77818C3.46158 8.55922 2.19525 8.55922 1.4142 7.77818C0.633156 6.99713 0.633156 5.7308 1.4142 4.94975ZM6.22253 3.39411C6.30064 3.47222 6.30064 3.59885 6.22253 3.67696L3.67695 6.22254C3.59884 6.30064 3.47221 6.30064 3.3941 6.22254L2.96984 5.79828C2.89173 5.72017 2.89173 5.59354 2.96984 5.51543L5.51542 2.96985C5.59353 2.89174 5.72016 2.89174 5.79827 2.96985L6.22253 3.39411ZM7.07106 3.53553C7.46158 3.14501 7.46158 2.51184 7.07106 2.12132C6.68054 1.7308 6.04737 1.7308 5.65685 2.12132L4.38405 3.39411C4.30595 3.47222 4.17932 3.47222 4.10121 3.39411L3.67695 2.96985C3.59884 2.89174 3.59884 2.76511 3.67695 2.68701L4.94974 1.41421C5.73079 0.633165 6.99712 0.633165 7.77817 1.41421C8.55921 2.19526 8.55921 3.46159 7.77817 4.24264L6.50537 5.51543C6.42727 5.59354 6.30064 5.59354 6.22253 5.51543L5.79827 5.09117C5.72016 5.01306 5.72016 4.88643 5.79827 4.80833L7.07106 3.53553Z" fill="#222222"/>
</svg>
