<svg width="56" height="56" viewBox="0 0 56 56" fill="none" xmlns="http://www.w3.org/2000/svg">
<path d="M33.1896 7.63623C34.7361 7.63626 36.1991 8.33885 37.1652 9.54639L44.7023 18.9692C45.4244 19.8718 45.8185 20.9931 45.8185 22.1489V43.2729C45.8184 46.0843 43.539 48.3635 40.7277 48.3638H15.2726C12.4612 48.3637 10.182 46.0844 10.1818 43.2729V12.7271C10.1819 9.91549 12.4611 7.63628 15.2726 7.63623H33.1896ZM23.8605 26.7095C23.6617 26.5107 23.3386 26.5107 23.1398 26.7095L19.9006 29.9497C17.9125 31.9378 17.9125 35.1608 19.9006 37.1489C21.8887 39.137 25.1117 39.137 27.0998 37.1489L30.34 33.9097C30.5387 33.711 30.5384 33.3888 30.34 33.1899L29.2599 32.1099C29.0611 31.9111 28.739 31.9111 28.5402 32.1099L25.3 35.3491C24.3059 36.3432 22.6944 36.3432 21.7004 35.3491C20.7063 34.3551 20.7063 32.7436 21.7004 31.7495L24.9396 28.5093C25.1384 28.3105 25.1384 27.9884 24.9396 27.7896L23.8605 26.7095ZM31.0598 24.9097C30.861 24.711 30.5388 24.7111 30.34 24.9097L23.8605 31.3892C23.6617 31.588 23.6617 31.9111 23.8605 32.1099L24.9396 33.1899C25.1384 33.3887 25.4615 33.3887 25.6603 33.1899L32.1398 26.7095C32.3384 26.5107 32.3385 26.1885 32.1398 25.9897L31.0598 24.9097ZM36.0998 20.9497C34.1117 18.9616 30.8877 18.9617 28.8996 20.9497L25.6603 24.1899C25.4615 24.3888 25.4615 24.7109 25.6603 24.9097L26.7394 25.9897C26.9383 26.1886 27.2613 26.1886 27.4601 25.9897L30.6994 22.7495C31.6935 21.7555 33.306 21.7555 34.3 22.7495C35.294 23.7435 35.294 25.356 34.3 26.3501L31.0598 29.5894C30.8609 29.7882 30.8609 30.1112 31.0598 30.3101L32.1398 31.3892C32.3386 31.588 32.6607 31.588 32.8596 31.3892L36.0998 28.1499C38.0878 26.1618 38.0879 22.9378 36.0998 20.9497Z" fill="#222222"/>
</svg>
