<svg width="24" height="24" viewBox="0 0 24 24" fill="none" xmlns="http://www.w3.org/2000/svg">
<rect x="7.75732" y="14.8284" width="10" height="2" transform="rotate(-45 7.75732 14.8284)" fill="black"/>
<path d="M7.05024 11.2928L6.34313 11.9999C4.78104 13.562 4.78104 16.0947 6.34313 17.6568C7.90523 19.2189 10.4379 19.2189 12 17.6568L12.7071 16.9497L14.1213 18.3639L13.4142 19.071C11.0711 21.4142 7.27207 21.4142 4.92892 19.071C2.58577 16.7279 2.58577 12.9289 4.92892 10.5857L5.63603 9.87862L7.05024 11.2928Z" fill="black"/>
<path d="M10.5858 4.92888C12.9289 2.58573 16.7279 2.58573 19.0711 4.92888C21.4142 7.27203 21.4142 11.071 19.0711 13.4142L18.3639 14.1213L16.9497 12.7071L17.6568 11.9999C19.2189 10.4379 19.2189 7.90519 17.6568 6.34309C16.0947 4.781 13.5621 4.781 12 6.34309L11.2929 7.0502L9.87866 5.63599L10.5858 4.92888Z" fill="black"/>
</svg>
