<svg width="24" height="24" viewBox="0 0 24 24" fill="none" xmlns="http://www.w3.org/2000/svg">
<path d="M12 4.70508V10" stroke="white" stroke-width="2"/>
<path d="M12 14V19.2949" stroke="white" stroke-width="2"/>
<path d="M19.2998 11.995L14.0049 11.995" stroke="white" stroke-width="2"/>
<path d="M10.0049 11.995L4.70996 11.995" stroke="white" stroke-width="2"/>
<path d="M15 4.72461V7.03125L12 5.30664L9 7.03125V4.72461L12 3L15 4.72461Z" fill="white"/>
<path d="M15 19.3066V17L12 18.7246L9 17V19.3066L12 21.0312L15 19.3066Z" fill="white"/>
<path d="M19.291 15.0156L16.9844 15.0156L18.709 12.0156L16.9844 9.01562L19.291 9.01562L21.0156 12.0156L19.291 15.0156Z" fill="white"/>
<path d="M4.70898 15.0156L7.01562 15.0156L5.29102 12.0156L7.01562 9.01563L4.70898 9.01563L2.98437 12.0156L4.70898 15.0156Z" fill="white"/>
</svg>
