<svg width="22" height="22" viewBox="0 0 22 22" fill="none" xmlns="http://www.w3.org/2000/svg">
<path d="M9 7C12.3137 7 15 9.68629 15 13C15 16.3137 12.3137 19 9 19C5.68629 19 3 16.3137 3 13C3 9.68629 5.68629 7 9 7Z" fill="#222222"/>
<path d="M17 3C18.1046 3 19 3.89543 19 5V12C19 13.1046 18.1046 14 17 14H16.0771C15.9481 14 15.8531 13.8796 15.8779 13.7529C15.9576 13.3475 16 12.9287 16 12.5C16 8.91015 13.0899 6 9.5 6C9.07129 6 8.6525 6.04245 8.24707 6.12207C8.12044 6.14694 8 6.0519 8 5.92285V5C8 3.89543 8.89543 3 10 3H17Z" fill="#222222"/>
</svg>
