<svg width="56" height="56" viewBox="0 0 56 56" fill="none" xmlns="http://www.w3.org/2000/svg">
<path fill-rule="evenodd" clip-rule="evenodd" d="M50.9091 28C50.909 43.2723 36.9094 26.7275 31.8182 30.5449C25.7688 35.082 46.4908 50.8184 27.9999 50.8184C15.3476 50.8183 5.09075 40.6523 5.0907 28C5.0907 15.3477 15.3476 5.09087 27.9999 5.09082C40.6522 5.09082 50.9091 15.3477 50.9091 28ZM20.3632 19.0908C20.3632 16.9822 18.6543 15.2727 16.5458 15.2725C14.4371 15.2725 12.7274 16.9821 12.7274 19.0908C12.7275 21.1995 14.4371 22.9092 16.5458 22.9092C18.6542 22.9089 20.3631 21.1993 20.3632 19.0908ZM28.454 42C28.454 39.8914 26.7452 38.1818 24.6366 38.1816C22.5279 38.1816 20.8182 39.8913 20.8182 42C20.8183 44.1086 22.5279 45.8184 24.6366 45.8184C26.7451 45.8182 28.4539 44.1085 28.454 42ZM31.8182 14C31.8182 11.8913 30.1086 10.1816 27.9999 10.1816C25.8912 10.1816 24.1815 11.8913 24.1815 14C24.1816 16.1086 25.8912 17.8184 27.9999 17.8184C30.1085 17.8184 31.8181 16.1086 31.8182 14ZM43.2723 19.0908C43.2723 16.9821 41.5627 15.2725 39.454 15.2725C37.3455 15.2727 35.6366 16.9822 35.6366 19.0908C35.6367 21.1993 37.3455 22.909 39.454 22.9092C41.5626 22.9092 43.2722 21.1995 43.2723 19.0908Z" fill="#222222"/>
</svg>
