<svg width="22" height="22" viewBox="0 0 22 22" fill="none" xmlns="http://www.w3.org/2000/svg">
<path d="M10.9603 3.0001C12.714 2.99141 14.4222 3.55941 15.8216 4.61631C16.6947 5.27575 17.4177 6.10301 17.9525 7.04209L18.6996 5.55186L20.4886 6.44834L18.3636 10.6837L13.8148 9.35947L14.3744 7.4376L16.1722 7.96201C15.7756 7.28668 15.2495 6.69007 14.6166 6.21201C13.567 5.41934 12.2853 4.9936 10.9701 5.0001C9.6549 5.00673 8.37785 5.44607 7.33629 6.24912C6.29497 7.05222 5.54625 8.17531 5.20543 9.44541C4.86469 10.7159 4.95064 12.0637 5.45055 13.2804C5.95048 14.4971 6.83645 15.5159 7.97203 16.1798C9.10756 16.8436 10.4303 17.1163 11.7357 16.9552C13.041 16.7939 14.2577 16.2082 15.1976 15.2882L16.5961 16.7169C15.3429 17.9435 13.7212 18.7245 11.9808 18.9396C10.2402 19.1544 8.47633 18.7915 6.96227 17.9063C5.44825 17.0211 4.26748 15.6624 3.60094 14.0401C2.93445 12.4179 2.81948 10.6218 3.27379 8.92783C3.72817 7.23392 4.72676 5.7361 6.11559 4.66514C7.50441 3.59437 9.20666 3.00888 10.9603 3.0001Z" fill="white"/>
</svg>
