<svg width="24" height="24" viewBox="0 0 24 24" fill="none" xmlns="http://www.w3.org/2000/svg">
<path d="M13 21H11V18.9268C11.3267 18.9735 11.6604 19 12 19C12.3396 19 12.6733 18.9735 13 18.9268V21ZM6.39355 16.1914C6.795 16.7275 7.27158 17.2039 7.80762 17.6055L6.34277 19.0713L4.92871 17.6572L6.39355 16.1914ZM19.0713 17.6572L17.6562 19.0713L16.1914 17.6064C16.7277 17.2048 17.2038 16.7277 17.6055 16.1914L19.0713 17.6572ZM5.07227 11C5.02553 11.3267 5 11.6604 5 12C5 12.3396 5.02553 12.6733 5.07227 13H3V11H5.07227ZM21 13H18.9277C18.9745 12.6733 19 12.3396 19 12C19 11.6604 18.9745 11.3267 18.9277 11H21V13ZM7.80762 6.39355C7.2716 6.79502 6.79502 7.2716 6.39355 7.80762L4.92871 6.34277L6.34277 4.92871L7.80762 6.39355ZM19.0713 6.34277L17.6055 7.80762C17.2039 7.27158 16.7275 6.795 16.1914 6.39355L17.6572 4.92871L19.0713 6.34277ZM13 5.07227C12.6733 5.02553 12.3396 5 12 5C11.6604 5 11.3267 5.02553 11 5.07227V3H13V5.07227Z" fill="black"/>
<circle cx="12" cy="12" r="6" stroke="black" stroke-width="2"/>
<rect x="12" y="11" width="6" height="2" fill="black"/>
<rect x="8.41431" y="7" width="6" height="2" transform="rotate(45 8.41431 7)" fill="black"/>
<rect width="6" height="2" transform="matrix(0.707107 -0.707107 -0.707107 -0.707107 8.41431 16.6569)" fill="black"/>
</svg>
