<svg width="22" height="22" viewBox="0 0 22 22" fill="none" xmlns="http://www.w3.org/2000/svg">
<path d="M7.53965 14.4873C7.64099 14.4264 7.77273 14.4666 7.82629 14.5721C8.66446 16.2221 9.81968 17.0471 11.0295 17.0471C12.8959 17.0683 13.9371 16.0923 13.9371 14.5857C13.9371 11.021 6.64833 12.5487 6.64833 7.09547C6.64833 4.50676 8.61297 2.979 11.3045 3.00022C13.1243 3.02091 14.8694 4.09059 15.7021 6.40595C15.7382 6.50623 15.6862 6.61638 15.5868 6.6548L14.0971 7.23063C13.9892 7.27233 13.8688 7.21352 13.8301 7.10458C13.3002 5.61556 12.3195 4.97267 11.2849 4.95236C9.73281 4.95236 8.73084 5.77989 8.73084 7.09547C8.73084 10.6178 16 9.28101 16 14.607C16 17.2381 14.0943 19.0417 11.0098 18.9993C8.9411 18.9786 7.28324 17.7275 6.09087 15.5803C6.0392 15.4873 6.07152 15.3703 6.16272 15.3154L7.53965 14.4873Z" fill="#222222"/>
<rect x="3" y="10" width="16" height="2" rx="0.2" fill="#222222"/>
</svg>
