<svg width="24" height="24" viewBox="0 0 24 24" fill="none" xmlns="http://www.w3.org/2000/svg">
<rect x="3" y="11" width="18" height="2" fill="black"/>
<path d="M12.5048 12C11.5304 12.0006 10.5803 11.8102 9.7461 11.4554C8.91132 11.1004 8.23709 10.6 7.76732 10.0233C7.29979 9.44938 7.05052 8.82097 7.00697 8.19909C6.96351 7.57858 7.12324 6.94411 7.49868 6.34948C7.87666 5.75083 8.46591 5.20646 9.23751 4.78921C10.0088 4.37214 10.9213 4.10493 11.8894 4.0251C12.8573 3.94529 13.8319 4.05687 14.7176 4.34424C15.604 4.63184 16.3548 5.08009 16.9124 5.62633" stroke="black" stroke-width="2"/>
<path d="M12 12C13.2484 12 14.4528 12.2653 15.4583 12.7451C16.4659 13.2261 17.1928 13.8824 17.6021 14.5882C18.0042 15.2817 18.0962 16.0105 17.9022 16.7072C17.7047 17.4161 17.1992 18.1285 16.3685 18.7218C15.5374 19.3155 14.4464 19.7403 13.225 19.9139C12.005 20.0872 10.7425 19.9971 9.60493 19.6605C8.46485 19.3232 7.53674 18.7647 6.91 18.0947C6.28828 17.4301 6 16.6998 6 16" stroke="black" stroke-width="2"/>
</svg>
