<svg width="56" height="56" viewBox="0 0 56 56" fill="none" xmlns="http://www.w3.org/2000/svg">
<path fill-rule="evenodd" clip-rule="evenodd" d="M28 5.09082C45.5218 5.09082 50.4798 19.0507 50.8817 26.9509C50.916 27.6251 50.6407 28.2683 50.1633 28.7456L28.7457 50.1633C28.2685 50.6404 27.6264 50.9089 26.9535 50.8593C22.4662 50.5266 5.09088 47.9507 5.09088 27.9999C5.09088 10.1817 20.3636 5.09082 28 5.09082ZM44.5927 28.0422C37.3968 28.5393 28.6318 33.4061 28.0323 44.5876C28.008 45.0405 28.5493 45.2688 28.87 44.9481L44.9481 28.8699C45.2685 28.5495 45.0443 28.012 44.5927 28.0422ZM32.6708 21.5518L17.0898 25.7279C16.7199 25.827 16.59 26.2811 16.876 26.5358C19.212 28.6155 22.7129 29.4904 26.1978 28.5567C29.6825 27.623 32.2767 25.1148 33.2599 22.1459C33.3803 21.7823 33.0407 21.4526 32.6708 21.5518ZM19.2152 17.2513C18.8512 15.8936 17.4558 15.0878 16.098 15.4516C14.7403 15.8156 13.9346 17.2111 14.2983 18.5688C14.6621 19.9266 16.0576 20.7322 17.4155 20.3685C18.7734 20.0047 19.579 18.6092 19.2152 17.2513ZM31.5099 13.9577C31.1461 12.6 29.7504 11.7946 28.3927 12.1579C27.0348 12.5218 26.2292 13.9172 26.593 15.2751C26.957 16.6328 28.3524 17.4387 29.7102 17.0748C31.0676 16.7107 31.8735 15.3152 31.5099 13.9577Z" fill="#222222"/>
</svg>
