<svg width="56" height="56" viewBox="0 0 56 56" fill="none" xmlns="http://www.w3.org/2000/svg">
<path fill-rule="evenodd" clip-rule="evenodd" d="M43.2727 7.63623C46.0843 7.63623 48.3636 9.91551 48.3636 12.7271V43.2726C48.3636 46.0842 46.0843 48.3635 43.2727 48.3635H12.7273C9.91563 48.3635 7.63635 46.0842 7.63635 43.2726V12.7271C7.63635 9.91551 9.91563 7.63623 12.7273 7.63623H43.2727ZM16.2919 15.2726C15.7296 15.2726 15.2727 15.7294 15.2727 16.2918V22.3994C15.2727 22.6805 15.5011 22.909 15.7823 22.909H17.3086C17.5897 22.909 17.8182 22.6805 17.8182 22.3994V20.3635H25.4545V38.1817H22.9091V40.7271H33.0909V38.1817H30.5454V20.3635H38.1818V22.3994C38.1818 22.6805 38.4102 22.909 38.6914 22.909H40.2177C40.4988 22.909 40.7273 22.6805 40.7273 22.3994V16.2918C40.7273 15.7294 40.2704 15.2726 39.7081 15.2726H16.2919Z" fill="#222222"/>
</svg>
