<svg width="22" height="22" viewBox="0 0 22 22" fill="none" xmlns="http://www.w3.org/2000/svg">
<path d="M18 18.8C18 18.9105 17.9105 19 17.8 19H4.2C4.08954 19 4 18.9105 4 18.8L4 17.2C4 17.0895 4.08954 17 4.2 17H17.8C17.9105 17 18 17.0895 18 17.2V18.8Z" fill="#222222"/>
<path d="M7.56348 8.97949C7.56348 11.3956 8.71238 13.0264 10.9902 13.0264C13.2681 13.0264 14.417 11.3956 14.417 8.97949V3.2C14.417 3.08954 14.5065 3 14.617 3H16.3C16.4105 3 16.5 3.08954 16.5 3.2V8.97949C16.5 12.503 14.4557 15 10.9902 15C7.52477 15 5.5 12.503 5.5 8.97949V3.2C5.5 3.08954 5.58954 3 5.7 3H7.36348C7.47393 3 7.56348 3.08954 7.56348 3.2V8.97949Z" fill="#222222"/>
</svg>
