<svg width="24" height="24" viewBox="0 0 24 24" fill="none" xmlns="http://www.w3.org/2000/svg">
<path d="M21.582 7.18612C21.352 6.32563 20.6744 5.64795 19.8138 5.41797C18.2542 5 12 5 12 5C12 5 5.74582 5 4.18616 5.41797C3.32562 5.64795 2.6479 6.32563 2.41795 7.18612C2 8.74588 2 12 2 12C2 12 2 15.2542 2.41795 16.814C2.6479 17.6745 3.32562 18.352 4.18616 18.5821C5.74582 19 12 19 12 19C12 19 18.2542 19 19.8138 18.5821C20.6744 18.352 21.352 17.6744 21.582 16.814C22 15.2541 22 12 22 12C22 12 22 8.74588 21.582 7.18612Z" fill="black"/>
<path d="M9.95459 14.9546L15.1819 12.0002L9.95459 9.04553V14.9546Z" fill="white"/>
</svg>
