<svg width="104" height="32" viewBox="0 0 104 32" fill="none" xmlns="http://www.w3.org/2000/svg">
<path d="M98.9914 0C101.757 0 104 2.23837 104 4.99824C104 6.55226 103.29 7.94044 102.177 8.85687C103.29 9.77482 104 11.1631 104 12.7157C104 14.345 103.219 15.7935 102.009 16.7054C103.219 17.6174 104 19.0659 104 20.6952C104 22.7919 102.707 24.5871 100.872 25.3287C101.058 25.8502 101.159 26.414 101.159 27.0003C101.159 29.7617 98.9159 32 96.1503 32C94.7531 32 93.4888 31.4288 92.5795 30.5093C91.6702 31.4288 90.4075 32 89.0103 32C86.2447 32 84.0017 29.7617 84.0017 27.0003C84.0017 26.4818 84.0803 25.9829 84.2268 25.5142C82.1076 24.9309 80.5535 22.9939 80.5535 20.6952C80.5535 19.0658 81.3343 17.6174 82.5442 16.7054C81.3343 15.7935 80.5535 14.345 80.5535 12.7157C80.5535 11.0863 81.2633 9.77482 82.3765 8.85687C81.2633 7.94044 80.5535 6.55225 80.5535 4.99824C80.5535 2.23838 82.7949 1.98874e-05 85.562 0C88.3291 0 90.5706 2.23837 90.5706 4.99824C90.5706 6.55226 89.8607 7.94044 88.746 8.85687C89.8607 9.77482 90.5706 11.1631 90.5706 12.7157C90.5706 14.345 89.7898 15.7935 88.5799 16.7054C89.7898 17.6174 90.5706 19.0659 90.5706 20.6952C90.5706 21.2122 90.4921 21.7112 90.3455 22.1815C91.205 22.4181 91.9708 22.8779 92.5795 23.4929C93.0568 23.0105 93.6308 22.6246 94.2697 22.3668C94.084 21.8438 93.9827 21.2816 93.9827 20.6952C93.9827 19.0658 94.7637 17.6174 95.9736 16.7054C94.7637 15.7935 93.9827 14.345 93.9827 12.7157C93.9827 11.0863 94.6927 9.77482 95.8059 8.85687C94.6927 7.94044 93.9827 6.55225 93.9827 4.99824C93.9827 2.23837 96.2257 9.94915e-06 98.9914 0Z" fill="black"/>
<path d="M58.9058 0.866699L54.3457 20.4978L54.2098 21.0856H54.2113L58.9571 16.318L59.0992 16.1748L59.0583 15.9774L57.9799 10.8451L58.2789 10.7425L58.3998 10.7004L58.4889 10.6702C58.5025 10.6657 58.5176 10.6597 58.5311 10.6552C61.1019 9.80205 65.5895 9.19913 66.6272 12.5333C67.5953 15.6458 64.8479 18.0003 62.768 19.1157L62.7393 19.1321L62.4599 19.2739C62.4448 19.2829 62.4281 19.2905 62.413 19.298C62.342 19.3327 62.2726 19.3674 62.2031 19.3975C62.1759 19.4111 62.1502 19.4261 62.1261 19.4457L61.8935 19.5648L61.9947 19.8677L63.6591 24.8826C63.6727 24.8826 63.6848 24.884 63.6983 24.884C64.594 24.884 66.609 23.7611 66.609 23.7611H66.6105C66.6105 23.7611 67.7253 27.5777 64.6137 30.2697C64.6077 30.2742 64.6047 30.2788 64.5987 30.2818C62.8073 31.7695 60.4947 31.5614 60.4947 31.5614C56.8228 31.5613 55.5315 26.8872 55.5315 26.8872L54.6357 23.74L54.5466 23.8139L53.3896 24.7831L53.3413 24.8253L53.3292 24.878L52.7628 27.3199L51.7266 31.3052H43.1066L48.0035 10.6129L48.7873 7.22298L48.8402 6.99541L45.8405 6.99394L47.576 0.63604H58.9602L58.9058 0.866699Z" fill="black"/>
<path fill-rule="evenodd" clip-rule="evenodd" d="M5.4904 0.217116C6.08701 0.217116 6.63991 0.361701 7.13079 0.649583C7.63528 0.945014 8.0506 1.40637 8.36629 2.01984C8.64873 2.56548 8.86032 3.23925 9.00985 4.07428C9.15031 4.85956 9.21974 5.82571 9.21975 6.94257C9.21975 8.31422 9.07469 9.74626 8.78771 11.1963C8.50375 12.6282 8.11416 14.0903 7.63083 15.5448C7.14447 16.9948 6.56897 18.4555 5.91344 19.8874C5.30323 21.2214 4.64759 22.5342 3.96639 23.7898C4.26847 25.2006 4.65367 26.322 5.11736 27.1208C5.68374 28.093 6.16255 28.0931 6.31967 28.0931C6.62326 28.0931 6.92686 27.9604 7.24555 27.6906C7.68055 27.3199 8.08237 26.8797 8.44033 26.3824C8.82247 25.8533 9.16239 25.3091 9.45088 24.762C9.60796 24.4681 9.74391 24.2088 9.86021 23.9827V23.9902L12.7587 25.6708C12.7103 25.7643 12.6606 25.8624 12.6092 25.9603C12.3857 26.3839 12.1243 26.8391 11.8328 27.3109C11.5413 27.7841 11.209 28.2574 10.848 28.7231C10.4704 29.2069 10.0536 29.6502 9.60798 30.0376C9.14729 30.4385 8.64271 30.767 8.11405 31.0203C7.53556 31.2961 6.91328 31.4362 6.26229 31.4362C5.2473 31.4362 4.35916 31.1153 3.62359 30.4822C2.96806 29.9215 2.40771 29.1814 1.95458 28.2815C1.53014 27.4359 1.18417 26.4622 0.925883 25.392C0.675152 24.3505 0.477376 23.2802 0.342947 22.21C0.208521 21.1338 0.114822 20.0818 0.0679994 19.087C0.0226867 18.0906 0 17.1937 0 16.419C9.87419e-07 15.2931 0.0363253 14.1189 0.110333 12.9282C0.185855 11.6952 0.306669 10.5029 0.463753 9.38149C0.62386 8.22991 0.832277 7.11742 1.0815 6.07587C1.33978 5.01023 1.65096 4.06214 2.00591 3.25424C2.38352 2.3966 2.83366 1.69417 3.34569 1.16963C3.9589 0.538118 4.67934 0.217133 5.4904 0.217116ZM5.4904 3.73057C5.43603 3.65074 5.37712 3.73057 5.37712 3.73057C5.16718 4.03956 4.97997 4.46313 4.78061 5.0449C4.57519 5.64933 4.37723 6.39555 4.199 7.26375C4.01927 8.13042 3.86522 9.07545 3.74439 10.0702C3.62054 11.0892 3.5224 12.1549 3.45292 13.2372C3.38194 14.336 3.34569 15.4378 3.34569 16.5125C3.34569 16.838 3.35016 17.1546 3.35469 17.4591C3.36073 17.4455 3.3683 17.4304 3.37283 17.4154C3.86221 16.2382 4.29874 15.0368 4.6688 13.843C5.04036 12.6493 5.34241 11.448 5.56445 10.2723C5.78346 9.11171 5.8953 7.99475 5.8953 6.95773C5.8953 5.17466 5.72154 4.33357 5.57654 3.94165C5.53425 3.83162 5.5282 3.79087 5.48892 3.73057H5.4904Z" fill="black"/>
<path d="M22.921 25.1403H26.2258L24.7969 31.3353H12.7587L16.0032 17.8963H12.3766L13.899 11.3666H26.1851L22.921 25.1403Z" fill="black"/>
<path d="M31.0064 0.614991L38.5511 20.329V0.614991H41.5507V31.3353H39.3938L31.9277 11.9574V31.3353H28.9281V0.614991H31.0064Z" fill="black"/>
<path d="M72.3095 10.0733L72.6614 9.38149L76.9677 0.893783L79.4766 2.15998L79.6426 2.24432L72.7232 15.8839C72.696 15.9367 72.6961 16 72.7232 16.0528L79.558 29.5281V29.5296L79.6412 29.6939L79.4735 29.7767L77.1337 30.96L76.9677 31.0444L76.883 30.877L75.9767 29.0924L75.7322 28.6086L72.3095 21.8634V31.3036H69.3097V0.634568H72.3095V10.0733Z" fill="black"/>
<path d="M21.196 0.449247C23.7829 0.449257 25.8799 2.5419 25.8799 5.12336C25.8799 7.70479 23.7829 9.79746 21.196 9.79747C18.6092 9.79747 16.5122 7.7048 16.5122 5.12336C16.5122 2.5419 18.6092 0.449247 21.196 0.449247Z" fill="black"/>
</svg>
