<svg width="850" height="1160" viewBox="0 0 850 1160" fill="none" xmlns="http://www.w3.org/2000/svg">
<path d="M310.13 534.06C305.3 534.06 300.82 532.58 297.05 529.85C293.52 532.08 289.48 533.27 285.22 533.27C283.74 533.27 282.23 533.12 280.74 532.84C274.93 531.73 270.07 528.63 266.75 524.1C265.08 524.51 263.29 524.74 261.36 524.74C257.52 524.74 253.8 523.76 250.29 521.83C245.08 518.96 241.4 514.49 239.63 509.16C233.98 508.77 228.73 506.26 224.72 501.99C220.64 497.64 218.53 492.24 218.52 486.59C213.28 484.49 209.04 480.52 206.52 475.15C204.01 469.79 203.66 464.04 205.37 458.69C201.04 455.09 198.28 450.05 197.52 444.12C196.77 438.21 198.23 432.61 201.54 428.03C198.53 423.25 197.42 417.56 198.55 411.71C199.94 404.46 203.93 399.64 208.93 396.68C208.56 394.92 208.37 393.05 208.42 391.07C208.56 385.77 210.49 380.67 213.89 376.65C215.03 375.23 216.32 373.98 217.72 372.9C218.07 369.15 219.36 365.96 220.65 363.61C222.26 360.69 224.36 358.24 226.84 356.33C227.19 352.58 228.48 349.4 229.77 347.05C231.38 344.13 233.48 341.68 235.97 339.76C236.32 336.01 237.61 332.83 238.9 330.48C240.51 327.56 242.61 325.11 245.09 323.19C245.44 319.44 246.73 316.26 248.02 313.91C249.63 310.99 251.73 308.54 254.21 306.63C254.56 302.88 255.85 299.7 257.14 297.35C258.75 294.43 260.85 291.98 263.34 290.06C263.69 286.31 264.98 283.13 266.27 280.77C267.88 277.85 269.98 275.4 272.47 273.48C272.82 269.73 274.11 266.54 275.4 264.19C276.77 261.7 278.5 259.56 280.51 257.79C280.69 255.92 281.12 253.96 281.86 251.91C282.15 251.11 282.48 250.33 282.84 249.58C282.78 248.75 282.76 247.9 282.79 247.05C282.82 246.18 282.89 245.32 283 244.47C282.67 243.68 282.39 242.86 282.15 242.02C281.91 241.18 281.71 240.34 281.56 239.49C281.01 238.84 280.49 238.15 280 237.43C279.52 236.72 279.09 236 278.69 235.26C277.98 234.82 277.29 234.34 276.62 233.82C275.92 233.28 275.25 232.7 274.63 232.1C273.79 231.9 272.95 231.64 272.12 231.34C271.32 231.05 270.54 230.72 269.79 230.35C269.21 230.39 268.63 230.41 268.04 230.41C267.77 230.41 267.5 230.41 267.23 230.4C266.37 230.37 265.52 230.3 264.68 230.19C263.89 230.51 263.08 230.8 262.24 231.04C261.41 231.28 260.56 231.48 259.72 231.63C259.07 232.18 258.38 232.7 257.65 233.19C256.95 233.67 256.23 234.1 255.49 234.49C255.05 235.2 254.57 235.89 254.05 236.57C252.99 237.94 251.81 239.17 250.54 240.23C250.38 243.72 249.41 247.16 247.62 250.4C245.87 253.58 243.53 256.2 240.75 258.19C240.56 261.61 239.59 264.99 237.84 268.16C236.09 271.33 233.76 273.95 230.97 275.94C230.78 279.36 229.81 282.74 228.06 285.91C226.31 289.08 223.98 291.7 221.19 293.69C221 297.11 220.03 300.48 218.28 303.66C216.53 306.83 214.2 309.45 211.41 311.44C211.22 314.86 210.25 318.23 208.5 321.41C206.75 324.58 204.42 327.2 201.63 329.19C201.44 332.61 200.47 335.98 198.72 339.16C196.97 342.33 194.64 344.95 191.85 346.94C191.66 350.36 190.69 353.73 188.94 356.91C184.67 364.67 176.88 369.12 167.58 369.12C162.22 369.12 157.49 367.62 155.22 366.9C150.51 365.4 145.06 363.2 139.78 361.06C135.14 359.18 129.88 357.05 126.95 356.19L111.54 351.7L117.93 329.77C113.35 322.07 113.09 313.41 117.25 305.87C119 302.7 121.33 300.08 124.12 298.09C124.31 294.67 125.28 291.3 127.03 288.12C128.78 284.95 131.11 282.33 133.9 280.34C134.09 276.92 135.06 273.55 136.81 270.37C138.56 267.2 140.89 264.58 143.68 262.59C143.87 259.17 144.84 255.8 146.59 252.62C148.34 249.45 150.67 246.83 153.46 244.84C153.65 241.42 154.62 238.05 156.37 234.87C158.12 231.7 160.45 229.07 163.24 227.09C163.43 223.67 164.4 220.3 166.15 217.12C168.01 213.74 170.54 210.99 173.56 208.96C173.63 206.8 173.97 204.66 174.6 202.57C176.67 195.64 181.75 189.89 188.53 186.81C188.59 186.78 188.64 186.76 188.7 186.73C188.88 180.8 191.35 175.24 195.9 170.98C200.22 166.93 205.55 164.78 211.3 164.77C213.4 159.53 217.36 155.31 222.74 152.78C225.87 151.31 229.15 150.57 232.47 150.57C234.95 150.57 237.21 150.95 239.26 151.6C242.87 147.31 247.91 144.53 253.77 143.79C254.78 143.66 255.79 143.6 256.78 143.6C261.61 143.6 266.1 145.08 269.87 147.81C273.4 145.58 277.44 144.39 281.7 144.39C283.18 144.39 284.69 144.54 286.18 144.82C291.99 145.93 296.85 149.03 300.17 153.56C301.84 153.15 303.63 152.92 305.56 152.92C309.39 152.92 313.11 153.9 316.62 155.83C321.83 158.7 325.52 163.17 327.29 168.51C332.95 168.9 338.19 171.41 342.2 175.68C346.28 180.03 348.39 185.43 348.4 191.08C353.64 193.18 357.88 197.15 360.4 202.52C362.91 207.88 363.26 213.64 361.55 218.99C365.88 222.59 368.65 227.63 369.4 233.56C370.15 239.46 368.69 245.07 365.38 249.65C368.39 254.43 369.49 260.12 368.37 265.97C367.14 272.39 363.87 276.91 359.67 279.91C360.44 282.9 360.61 285.97 360.18 289.12C359.31 295.54 355.83 301.32 350.58 305.13C350.5 305.2 350.42 305.26 350.33 305.32C349.98 309.08 348.69 312.27 347.4 314.63C345.79 317.55 343.69 320 341.2 321.92C340.85 325.67 339.56 328.86 338.27 331.21C336.66 334.13 334.56 336.58 332.08 338.49C331.73 342.24 330.44 345.42 329.15 347.77C327.54 350.69 325.44 353.14 322.95 355.06C322.6 358.81 321.31 361.99 320.02 364.34C318.41 367.26 316.31 369.71 313.83 371.62C313.48 375.37 312.19 378.55 310.9 380.9C309.29 383.82 307.19 386.27 304.71 388.19C304.36 391.94 303.07 395.12 301.78 397.47C300.17 400.39 298.07 402.84 295.59 404.75C295.24 408.5 293.95 411.68 292.66 414.03C291 417.05 288.81 419.56 286.21 421.51C285.96 422.91 285.58 424.33 285.06 425.76C284.77 426.56 284.44 427.34 284.07 428.09C284.13 428.92 284.15 429.76 284.12 430.62C284.09 431.49 284.02 432.35 283.9 433.2C284.22 433.99 284.51 434.81 284.75 435.65C284.99 436.49 285.19 437.33 285.34 438.17C285.89 438.82 286.41 439.51 286.9 440.23C287.38 440.94 287.82 441.66 288.21 442.4C288.92 442.84 289.61 443.32 290.28 443.84C290.98 444.38 291.65 444.96 292.27 445.56C293.11 445.76 293.95 446.02 294.78 446.32C295.58 446.61 296.36 446.94 297.11 447.3C297.69 447.26 298.27 447.24 298.86 447.24C299.14 447.24 299.41 447.24 299.7 447.25C300.56 447.28 301.4 447.35 302.23 447.46C303.02 447.14 303.83 446.85 304.67 446.61C305.5 446.37 306.35 446.17 307.19 446.02C307.84 445.47 308.53 444.95 309.25 444.46C309.95 443.98 310.68 443.55 311.41 443.16C311.85 442.45 312.33 441.75 312.86 441.08C314.46 439.02 316.3 437.3 318.35 435.94C318.83 431.11 320.74 426.54 323.86 422.8C325.21 421.11 326.75 419.64 328.47 418.42C328.66 415 329.63 411.62 331.38 408.45C333.13 405.28 335.46 402.66 338.25 400.67C338.44 397.25 339.41 393.88 341.16 390.7C342.91 387.52 345.24 384.9 348.03 382.92C348.22 379.5 349.19 376.13 350.94 372.95C352.69 369.78 355.02 367.15 357.81 365.17C358 361.75 358.97 358.38 360.72 355.2C362.47 352.03 364.8 349.41 367.59 347.42C367.78 344 368.75 340.63 370.5 337.45C372.25 334.28 374.59 331.65 377.37 329.67C377.56 326.25 378.53 322.87 380.28 319.7C384.55 311.94 392.34 307.49 401.64 307.49C401.91 307.49 402.18 307.49 402.45 307.5L416.25 291.1L428.53 301.43C430.98 303.49 435.04 306.4 438.98 309.22C443.6 312.53 448.39 315.96 452.17 319.15C453.97 320.66 457.71 323.81 460.57 328.28C465.62 336.17 466.05 345.18 461.75 352.98C460 356.16 457.66 358.78 454.87 360.77C454.68 364.19 453.71 367.57 451.96 370.74C450.21 373.91 447.88 376.54 445.09 378.52C444.9 381.94 443.93 385.31 442.18 388.49C440.43 391.66 438.1 394.28 435.31 396.27C435.12 399.69 434.15 403.06 432.4 406.24C430.65 409.41 428.32 412.03 425.53 414.02C425.34 417.44 424.37 420.81 422.62 423.99C420.87 427.16 418.54 429.78 415.75 431.77C415.56 435.19 414.59 438.56 412.84 441.74C411.09 444.91 408.76 447.53 405.97 449.52C405.78 452.94 404.81 456.31 403.06 459.49C400.74 463.71 397.38 466.95 393.3 469.02C393.14 472.78 392.15 476.46 390.32 479.82C387.65 484.73 383.36 488.57 378.2 490.9C378.02 496.84 375.55 502.4 371 506.66C366.68 510.71 361.36 512.86 355.6 512.87C353.5 518.11 349.54 522.33 344.16 524.86C341.03 526.33 337.76 527.07 334.43 527.07C331.95 527.07 329.69 526.69 327.63 526.04C324.02 530.33 318.98 533.11 313.12 533.85C312.11 533.98 311.1 534.04 310.11 534.04L310.13 534.06Z" fill="white"/>
<path d="M310.13 518C304.27 518 302.54 510.99 301.49 506.71C300.48 502.63 299.42 497.19 298.38 491.92C298.35 491.77 298.32 491.61 298.29 491.45C298.26 491.55 298.24 491.65 298.21 491.75C296.84 496.97 295.42 502.37 294.14 506.42C292.73 510.88 290.39 518.34 283.76 517.06C277.16 515.79 277.73 508.06 278.08 503.44C278.39 499.27 279.06 493.79 279.71 488.49C279.73 488.31 279.75 488.12 279.78 487.94C279.75 487.98 279.73 488.02 279.7 488.06C276.76 492.62 273.72 497.34 271.24 500.82C268.34 504.88 263.95 511.02 258.04 507.76C252.13 504.51 254.97 497.52 256.85 492.89C258.46 488.93 260.82 483.84 263.11 478.92C263.13 478.88 263.15 478.84 263.17 478.79C263.02 478.91 262.88 479.03 262.74 479.14C258.61 482.52 254.34 486.02 250.98 488.51C247.26 491.27 241.03 495.88 236.43 490.99C231.82 486.07 236.86 480.1 239.88 476.53C242.62 473.29 246.42 469.21 250.1 465.25C250.17 465.17 250.24 465.1 250.31 465.02C250.16 465.08 250.01 465.14 249.86 465.19C244.86 467.13 239.69 469.14 235.7 470.47C231.29 471.94 223.91 474.4 221.06 468.31C218.2 462.22 224.83 458.11 228.79 455.65C232.38 453.43 237.24 450.73 241.95 448.12C242.05 448.06 242.15 448.01 242.25 447.95C242.13 447.95 242.02 447.96 241.91 447.97C236.54 448.28 230.98 448.6 226.76 448.63C222.1 448.67 214.31 448.74 213.46 442.07C212.62 435.4 220.17 433.53 224.68 432.42C228.76 431.41 234.2 430.35 239.47 429.31C239.62 429.28 239.78 429.25 239.94 429.22C239.84 429.19 239.74 429.17 239.64 429.14C234.42 427.77 229.02 426.35 224.97 425.07C220.51 423.66 213.06 421.31 214.33 414.69C215.6 408.09 223.33 408.67 227.95 409.01C232.12 409.32 237.6 409.99 242.9 410.64C243.73 410.74 244.62 410.85 245.54 410.96C243.42 409.46 240.67 407.64 237.2 405.53C227.94 399.9 224.37 395.95 224.49 391.43C224.53 389.69 225.19 388.06 226.29 386.82C229.89 382.15 236.9 384.48 240.38 385.63C241.05 385.85 241.75 386.1 242.48 386.36C241.87 385.89 241.29 385.42 240.74 384.98C237.71 382.5 231.41 377.33 234.73 371.3C238.05 365.27 245.79 367.84 249.51 369.07C250.18 369.29 250.88 369.54 251.61 369.8C251 369.33 250.42 368.87 249.87 368.42C246.84 365.94 240.54 360.77 243.86 354.74C247.18 348.71 254.92 351.28 258.64 352.51C259.31 352.73 260.02 352.98 260.75 353.24C260.14 352.77 259.56 352.3 259.01 351.85C255.98 349.37 249.68 344.2 253 338.17C256.32 332.14 264.06 334.71 267.78 335.94C268.45 336.16 269.16 336.41 269.88 336.67C269.27 336.2 268.69 335.73 268.14 335.28C265.11 332.8 258.81 327.63 262.13 321.6C265.45 315.57 273.19 318.14 276.91 319.37C277.58 319.59 278.28 319.84 279.01 320.1C278.4 319.63 277.82 319.17 277.27 318.72C274.24 316.24 267.94 311.07 271.26 305.04C274.58 299.01 282.32 301.58 286.04 302.81C286.72 303.03 287.42 303.28 288.15 303.54C287.54 303.06 286.95 302.6 286.4 302.15C283.37 299.67 277.07 294.5 280.39 288.47C283.71 282.44 291.45 285.01 295.17 286.24C295.85 286.47 296.56 286.71 297.29 286.98C296.67 286.5 296.09 286.04 295.53 285.58C292.5 283.1 286.2 277.93 289.52 271.9C292.76 266.02 300.2 268.31 304.02 269.57C299.27 266.44 295.25 262.21 297.02 257.35C297.86 255.03 299.48 253.76 301.46 253.11C299.87 251.77 298.83 250 298.91 247.53C298.98 245.15 299.87 243.45 301.88 242.09C299.91 241.31 298.35 239.95 297.65 237.54C296.95 235.13 297.54 233.14 298.79 231.43C296.37 231.35 294.71 230.39 293.37 228.41C291.98 226.36 291.91 224.31 292.55 222.33C290.53 222.83 288.48 222.63 286.53 221.11C284.53 219.56 283.84 217.59 283.86 215.46C282.07 216.61 280.04 217.08 277.66 216.22C275.34 215.38 274.07 213.76 273.42 211.78C272.08 213.37 270.31 214.42 267.84 214.33C265.46 214.26 263.76 213.37 262.4 211.36C261.63 213.33 260.26 214.89 257.85 215.59C255.44 216.29 253.45 215.7 251.74 214.45C251.65 216.87 250.7 218.53 248.72 219.87C246.67 221.26 244.62 221.33 242.64 220.69C243.14 222.71 242.94 224.76 241.42 226.71C237.86 231.3 232.84 229 225.23 225.52C223.85 224.89 222.36 224.19 220.81 223.45C223.37 225.33 225.79 227.16 227.77 228.82C230.52 231.14 236.96 236.56 233.62 242.63C230.28 248.7 222.25 246.15 218.82 245.06C217.3 244.58 215.63 243.98 213.87 243.33C215.36 244.46 216.75 245.55 217.98 246.58C220.73 248.9 227.18 254.32 223.83 260.39C220.49 266.46 212.46 263.91 209.03 262.82C207.51 262.34 205.84 261.75 204.09 261.09C205.58 262.22 206.97 263.31 208.19 264.34C210.94 266.66 217.39 272.08 214.04 278.15C210.7 284.22 202.67 281.67 199.24 280.58C197.72 280.1 196.06 279.51 194.31 278.85C195.79 279.98 197.18 281.07 198.4 282.09C201.15 284.4 207.6 289.83 204.25 295.89C200.91 301.96 192.88 299.41 189.45 298.32C187.93 297.84 186.27 297.25 184.52 296.59C186.01 297.72 187.39 298.81 188.61 299.83C191.36 302.14 197.81 307.57 194.46 313.63C191.12 319.7 183.09 317.15 179.66 316.06C178.14 315.58 176.48 314.99 174.73 314.33C176.22 315.46 177.6 316.55 178.83 317.57C181.58 319.88 188.03 325.31 184.68 331.37C181.34 337.44 173.31 334.89 169.88 333.8C168.36 333.32 166.7 332.73 164.96 332.07C166.44 333.19 167.83 334.28 169.05 335.31C171.8 337.62 178.25 343.05 174.9 349.11C171.56 355.18 163.53 352.63 160.1 351.54C155.99 350.23 150.83 348.14 145.83 346.12C140.59 344 135.17 341.8 131.47 340.72L135.04 328.47C136.9 329.01 139.03 329.75 141.28 330.6C139.8 329.48 138.41 328.39 137.19 327.36C134.44 325.05 127.99 319.62 131.34 313.56C134.68 307.49 142.71 310.04 146.14 311.13C147.66 311.61 149.32 312.2 151.06 312.86C149.58 311.74 148.19 310.65 146.97 309.62C144.22 307.3 137.77 301.88 141.12 295.81C144.46 289.74 152.49 292.29 155.92 293.38C157.44 293.86 159.1 294.45 160.85 295.11C159.36 293.98 157.98 292.89 156.75 291.87C154 289.56 147.55 284.13 150.9 278.07C154.24 272 162.27 274.55 165.7 275.64C167.22 276.12 168.88 276.71 170.63 277.37C169.14 276.24 167.75 275.15 166.53 274.13C163.78 271.82 157.33 266.39 160.68 260.33C164.02 254.26 172.05 256.81 175.48 257.9C177 258.38 178.66 258.97 180.4 259.63C178.92 258.51 177.53 257.42 176.31 256.39C173.56 254.08 167.11 248.65 170.46 242.58C173.8 236.51 181.83 239.06 185.26 240.15C186.78 240.63 188.45 241.22 190.2 241.88C188.71 240.75 187.32 239.66 186.1 238.63C183.35 236.32 176.9 230.89 180.25 224.82C183.59 218.75 191.62 221.3 195.05 222.39C196.58 222.88 198.25 223.47 200.01 224.13C198.51 223 197.12 221.9 195.89 220.87L195.58 220.61L192.08 216.82L191.77 216.32C189.75 213.11 189.16 210.02 190.02 207.14C190.78 204.61 192.62 202.57 195.22 201.39C198.26 200.01 201.81 200.07 204.95 201.56C207.61 202.82 210.95 204.46 214.49 206.2C215.53 206.71 216.67 207.27 217.86 207.85C214.77 204.07 211.67 200.26 209.4 197.2C206.64 193.48 202.02 187.25 206.92 182.65C211.84 178.04 217.81 183.08 221.38 186.1C224.62 188.84 228.7 192.64 232.66 196.32C232.74 196.39 232.81 196.46 232.89 196.53C232.83 196.38 232.77 196.23 232.72 196.08C230.78 191.08 228.77 185.91 227.44 181.92C225.97 177.51 223.51 170.13 229.6 167.28C235.69 164.42 239.8 171.05 242.26 175.01C244.48 178.6 247.18 183.46 249.79 188.17C249.85 188.27 249.9 188.37 249.96 188.47C249.96 188.35 249.95 188.24 249.94 188.13C249.63 182.76 249.31 177.2 249.28 172.98C249.24 168.32 249.17 160.53 255.85 159.68C262.52 158.84 264.39 166.39 265.5 170.9C266.51 174.98 267.57 180.42 268.61 185.69C268.64 185.85 268.67 186 268.7 186.16C268.73 186.06 268.75 185.96 268.78 185.86C270.15 180.64 271.57 175.24 272.85 171.19C274.26 166.74 276.6 159.27 283.23 160.55C289.83 161.82 289.26 169.55 288.91 174.17C288.6 178.34 287.93 183.82 287.28 189.12C287.26 189.3 287.24 189.49 287.21 189.67C287.24 189.63 287.26 189.59 287.29 189.55C290.23 184.99 293.27 180.27 295.75 176.79C298.65 172.73 303.04 166.59 308.95 169.85C314.86 173.11 312.02 180.1 310.14 184.72C308.53 188.68 306.17 193.77 303.88 198.69C303.86 198.73 303.84 198.77 303.82 198.82C303.97 198.7 304.11 198.58 304.25 198.47C308.38 195.09 312.65 191.59 316.01 189.1C319.73 186.34 325.96 181.73 330.56 186.62C335.17 191.54 330.13 197.51 327.11 201.08C324.37 204.32 320.57 208.4 316.89 212.36C316.82 212.44 316.75 212.51 316.68 212.59C316.83 212.53 316.98 212.47 317.13 212.42C322.13 210.48 327.3 208.47 331.29 207.14C335.7 205.67 343.08 203.21 345.93 209.3C348.78 215.39 342.16 219.5 338.2 221.96C334.61 224.18 329.75 226.88 325.04 229.49C324.94 229.55 324.84 229.6 324.74 229.66C324.86 229.66 324.97 229.65 325.08 229.64C330.45 229.33 336.01 229.01 340.23 228.98C344.89 228.94 352.68 228.87 353.53 235.55C354.37 242.22 346.82 244.08 342.31 245.2C338.23 246.21 332.79 247.27 327.52 248.31C327.37 248.34 327.21 248.37 327.05 248.4C327.15 248.43 327.25 248.45 327.35 248.48C332.57 249.85 337.97 251.27 342.02 252.55C346.48 253.96 353.93 256.31 352.66 262.93C351.39 269.53 343.66 268.95 339.04 268.61C335.26 268.33 330.39 267.75 325.56 267.16C330.63 270.2 334.62 272.9 337.48 275.23C341.02 278.11 345 282.04 344.33 286.94C344 289.4 342.59 291.22 340.92 292.32C337.14 295.63 330.96 293.58 327.75 292.52C327.07 292.29 326.35 292.05 325.62 291.78C326.24 292.26 326.83 292.73 327.39 293.19C330.42 295.67 336.72 300.84 333.4 306.87C330.08 312.9 322.34 310.33 318.62 309.1C317.94 308.88 317.24 308.63 316.51 308.37C317.12 308.85 317.71 309.31 318.26 309.76C321.29 312.24 327.59 317.41 324.27 323.44C320.95 329.47 313.21 326.9 309.49 325.67C308.82 325.45 308.11 325.2 307.39 324.94C308 325.41 308.58 325.88 309.13 326.33C312.16 328.81 318.46 333.98 315.14 340.01C311.82 346.04 304.08 343.47 300.36 342.24C299.69 342.02 298.99 341.77 298.26 341.51C298.87 341.98 299.45 342.45 300 342.9C303.03 345.38 309.33 350.55 306.01 356.58C302.69 362.61 294.95 360.04 291.23 358.81C290.56 358.59 289.85 358.34 289.12 358.08C289.73 358.55 290.31 359.02 290.86 359.47C293.89 361.95 300.19 367.12 296.87 373.15C293.55 379.18 285.81 376.61 282.09 375.38C281.42 375.16 280.72 374.91 279.99 374.65C280.6 375.12 281.18 375.59 281.73 376.03C284.76 378.51 291.06 383.68 287.74 389.71C284.42 395.74 276.68 393.17 272.96 391.94C272.29 391.72 271.59 391.47 270.86 391.21C271.47 391.68 272.05 392.15 272.6 392.6C275.63 395.08 281.93 400.25 278.61 406.28C275.29 412.31 267.55 409.74 263.83 408.51C263.44 408.38 263.03 408.24 262.62 408.1C267.71 411.68 271.79 415.29 269.98 420.29C269.14 422.61 267.52 423.88 265.54 424.54C267.13 425.88 268.17 427.65 268.09 430.12C268.02 432.5 267.13 434.2 265.12 435.56C267.09 436.34 268.65 437.7 269.35 440.11C270.05 442.52 269.46 444.51 268.21 446.22C270.63 446.3 272.29 447.26 273.63 449.24C275.02 451.29 275.09 453.34 274.45 455.32C276.47 454.82 278.52 455.02 280.47 456.54C282.47 458.09 283.16 460.06 283.14 462.19C284.93 461.04 286.97 460.57 289.34 461.43C291.66 462.27 292.93 463.89 293.58 465.87C294.92 464.28 296.68 463.23 299.16 463.32C301.54 463.39 303.24 464.28 304.6 466.29C305.38 464.32 306.74 462.76 309.15 462.06C311.56 461.36 313.55 461.95 315.26 463.2C315.35 460.78 316.3 459.12 318.27 457.78C320.32 456.39 322.37 456.33 324.35 456.96C323.85 454.94 324.05 452.89 325.57 450.94C329.13 446.35 334.15 448.65 341.76 452.13C344.81 453.53 348.4 455.25 352.01 457.01C349.68 455.11 347.22 453.26 344.8 451.69C337.58 447 334.34 442.91 334.31 438.43C334.29 436.12 335.19 434.27 336.32 432.99C339.95 428.19 347.26 430.51 350.48 431.54C352 432.02 353.66 432.61 355.41 433.27C353.93 432.15 352.54 431.06 351.32 430.03C348.57 427.72 342.12 422.29 345.47 416.23C348.81 410.16 356.84 412.71 360.27 413.8C361.79 414.28 363.45 414.87 365.19 415.53C363.71 414.41 362.32 413.32 361.1 412.29C358.35 409.98 351.9 404.55 355.25 398.49C358.59 392.42 366.62 394.97 370.05 396.06C371.57 396.54 373.23 397.13 374.98 397.79C373.49 396.66 372.11 395.57 370.89 394.55C368.14 392.24 361.69 386.81 365.04 380.75C368.38 374.68 376.41 377.23 379.84 378.32C381.36 378.8 383.03 379.39 384.77 380.05C383.28 378.92 381.89 377.83 380.67 376.8C377.92 374.49 371.47 369.06 374.82 363C378.16 356.93 386.19 359.48 389.62 360.57C391.14 361.05 392.8 361.64 394.54 362.3C393.06 361.18 391.67 360.09 390.45 359.06C387.7 356.75 381.25 351.32 384.6 345.26C387.94 339.19 395.97 341.74 399.4 342.83C400.92 343.31 402.59 343.9 404.34 344.56C402.85 343.43 401.46 342.34 400.24 341.31C397.49 339 391.04 333.57 394.39 327.51C397.73 321.44 405.76 323.99 409.19 325.08C410.72 325.57 412.39 326.16 414.15 326.82C412.65 325.69 411.26 324.59 410.03 323.56L418.25 313.79C421.17 316.25 425.5 319.35 429.68 322.35C434.06 325.49 438.59 328.74 441.89 331.51C444.64 333.83 451.08 339.25 447.74 345.32C444.4 351.39 436.37 348.84 432.94 347.75C431.42 347.27 429.75 346.67 427.99 346.02C429.48 347.15 430.87 348.24 432.1 349.27C434.85 351.59 441.3 357.01 437.95 363.08C434.61 369.15 426.58 366.6 423.15 365.51C421.63 365.03 419.96 364.44 418.21 363.78C419.7 364.91 421.09 366 422.31 367.03C425.06 369.34 431.51 374.77 428.16 380.83C424.82 386.9 416.79 384.35 413.36 383.26C411.84 382.78 410.18 382.19 408.44 381.53C409.92 382.65 411.31 383.74 412.53 384.77C415.28 387.08 421.73 392.51 418.38 398.57C415.04 404.64 407.01 402.09 403.58 401C402.06 400.52 400.4 399.93 398.65 399.27C400.14 400.4 401.52 401.49 402.74 402.51C405.49 404.82 411.94 410.25 408.59 416.31C405.25 422.38 397.22 419.83 393.79 418.74C392.27 418.26 390.61 417.67 388.86 417.01C390.35 418.14 391.73 419.23 392.96 420.25C395.71 422.56 402.16 427.99 398.81 434.05C395.47 440.12 387.44 437.57 384.01 436.48C382.49 436 380.83 435.41 379.09 434.76C380.57 435.88 381.96 436.97 383.18 438C385.93 440.31 392.38 445.74 389.03 451.8C385.69 457.87 377.66 455.32 374.23 454.23C371.22 453.27 367.65 451.9 363.99 450.44C369.84 455.54 374.14 460.05 374.43 460.36L374.87 460.82L375.21 461.36C378.46 466.52 377.26 470.37 376.26 472.21C374.18 476.02 369.81 477.42 366.4 477.46L364.95 477.48L363.64 476.87C360.79 475.55 356.76 473.57 352.49 471.47C351.45 470.96 350.31 470.4 349.12 469.82C352.21 473.6 355.31 477.42 357.58 480.47C360.34 484.19 364.96 490.42 360.06 495.02C355.14 499.63 349.17 494.59 345.6 491.57C342.36 488.83 338.28 485.03 334.32 481.35C334.24 481.28 334.17 481.21 334.09 481.14C334.15 481.29 334.21 481.44 334.26 481.59C336.2 486.59 338.21 491.76 339.54 495.75C341.01 500.16 343.47 507.54 337.38 510.39C331.29 513.25 327.18 506.62 324.72 502.66C322.5 499.07 319.8 494.21 317.19 489.51C317.13 489.41 317.08 489.31 317.02 489.21C317.02 489.33 317.03 489.44 317.04 489.55C317.35 494.92 317.67 500.48 317.7 504.7C317.74 509.36 317.81 517.15 311.13 518C310.78 518.04 310.45 518.06 310.13 518.06V518Z" fill="#222222"/>
<path d="M709.25 873.32C707.02 887.41 700.3 900.35 690.32 910.22C696.84 922.79 699.27 937.16 697.05 951.18C691.85 983.88 663.96 1007.6 630.72 1007.6C627.19 1007.6 623.61 1007.32 620.1 1006.77C617.65 1006.38 615.25 1005.87 612.92 1005.24C600.72 1024.14 579.71 1035.82 556.51 1035.82C552.94 1035.82 549.32 1035.53 545.76 1034.96C518.83 1030.75 497.72 1011.37 491.01 986.04C488.57 985.92 486.13 985.67 483.72 985.29C447.1 979.52 421.91 945.23 427.57 908.84C429.83 894.55 436.43 881.78 446.51 871.88C439.99 859.31 437.56 844.95 439.79 830.93C444.97 798.29 472.85 774.59 506.09 774.59C509.58 774.59 513.12 774.87 516.59 775.41C519.07 775.76 521.53 776.26 523.95 776.9C536.1 758 557.13 746.32 580.43 746.32C583.94 746.32 587.5 746.6 590.99 747.14C617.96 751.35 639.09 770.73 645.8 796.06C648.27 796.18 650.72 796.43 653.13 796.82C670.99 799.63 686.71 809.22 697.31 823.82C707.78 838.22 712.02 855.79 709.22 873.31L709.25 873.32Z" fill="white"/>
<path d="M693.4 870.8C697.81 843.07 678.62 817.08 650.61 812.67C645.47 811.84 640.33 811.84 635.37 812.49C633.63 812.77 631.97 811.48 631.88 809.64C630.23 786.59 612.69 766.76 588.54 762.99C564.48 759.23 541.71 772.63 533.08 794.12C532.35 795.77 530.51 796.6 528.86 795.77C524.36 793.57 519.49 792.01 514.26 791.27C486.25 786.86 460.08 805.69 455.67 833.42C453.37 847.93 457.6 861.98 466.14 872.72C467.24 874.1 466.87 876.12 465.41 877.13C454.02 884.75 445.76 896.78 443.46 911.29C439.14 939.02 458.24 965.01 486.25 969.42C491.48 970.25 496.53 970.25 501.49 969.6C503.33 969.32 504.89 970.61 504.98 972.45C506.63 995.59 524.17 1015.33 548.32 1019.1C572.38 1022.96 595.15 1009.46 603.87 987.97C604.51 986.32 606.44 985.58 608.09 986.32C612.5 988.52 617.46 990.09 622.6 990.91C650.61 995.32 676.78 976.4 681.19 948.67C683.49 934.16 679.26 920.11 670.72 909.37C669.62 907.99 669.99 905.97 671.45 904.96C682.84 897.43 691.1 885.31 693.4 870.8ZM627.83 901.38C585.96 897.52 578.52 906.89 591.01 947.02C591.1 947.48 590.92 948.03 590.46 948.12V948.21C590 948.39 589.45 948.12 589.27 947.66C571.55 909.55 559.79 907.72 531.24 938.57C530.96 938.94 530.41 939.03 529.95 938.66C529.77 938.48 529.58 938.2 529.58 937.93C529.58 937.75 529.67 937.56 529.76 937.38C554 903.04 549.69 891.83 508.73 882.65C508.27 882.56 507.9 882.1 508 881.55C508.09 881.09 508.55 880.72 509.01 880.82C550.88 884.59 558.41 875.22 545.83 835.18C545.74 834.63 545.92 834.17 546.38 833.99H546.47C546.93 833.81 547.39 833.99 547.66 834.45C565.29 872.65 577.04 874.49 605.6 843.54C605.88 843.17 606.52 843.17 606.89 843.45C607.07 843.63 607.26 844 607.26 844.28C607.26 844.46 607.17 844.56 607.08 844.74C582.84 879.08 587.15 890.29 628.11 899.47C628.66 899.65 628.94 900.11 628.84 900.57C628.84 901.12 628.38 901.4 627.83 901.4V901.38Z" fill="#222222"/>
<path d="M255.44 890.37C240.96 890.37 228.67 879.36 219.23 858.22C217.68 858.67 216.07 858.96 214.39 859.07C213.92 859.1 213.44 859.12 212.97 859.12C200.26 859.12 190.42 849.22 182.83 828.38C180.8 829.14 178.65 829.6 176.39 829.75C175.91 829.78 175.42 829.8 174.94 829.8C161.68 829.8 151.34 819.08 143.6 797.18C143.43 797.18 143.26 797.18 143.09 797.18C132.64 797.18 124.4 789.82 118.61 775.3C117.08 771.46 115.66 767.05 114.38 762.16C114.29 762.16 114.2 762.16 114.1 762.16C96.89 762.16 83.26 744.92 81.67 721.17C81.01 711.25 82.68 701.53 86.38 693.8C91.21 683.71 99.25 677.37 108.61 676.22C111.68 651.17 119.98 638.47 133.76 637.55C134.2 637.52 134.64 637.51 135.07 637.51C136.74 637.51 138.31 637.7 139.8 638.05C144.21 628.46 151.19 620.31 162.39 619.57C162.87 619.54 163.36 619.52 163.84 619.52C173.23 619.52 181.15 624.91 187.74 635.85C190.93 633.51 194.73 631.96 199.26 631.66C199.73 631.63 200.21 631.61 200.68 631.61C211.82 631.61 221 639.61 227.97 655.38C229.33 658.45 230.64 661.88 231.9 665.63C235.49 663.86 238.97 663.1 242.06 662.89C242.64 662.85 243.23 662.83 243.81 662.83C245.35 662.83 247.04 662.97 248.84 663.31C252.64 644.4 260.26 627.59 276.56 626.5C277.03 626.47 277.51 626.45 277.98 626.45C281.9 626.45 285.38 627.46 288.47 629.14C295.04 613.91 304.53 610.08 311.49 609.62C311.97 609.59 312.46 609.57 312.94 609.57C323.35 609.57 330.89 616.45 336.28 624.93C338.14 624.22 340.13 623.79 342.25 623.65C342.68 623.62 343.12 623.61 343.56 623.61C353.77 623.61 361.85 630.61 367.6 644.42C369.32 648.56 370.91 653.44 372.33 658.91C388.43 660.38 400.92 677.11 402.43 699.78C403.09 709.7 401.42 719.42 397.72 727.15C393.34 736.32 386.3 742.39 378.03 744.29C375.02 769.04 366.99 781.81 353.65 783.16C352.65 787.91 351.48 792.21 350.15 796.02C346.52 806.35 339.3 818.87 325.48 819.79C325 819.82 324.51 819.84 324.03 819.84C322.21 819.84 320.49 819.63 318.86 819.26C318.21 822.24 317.5 825.01 316.72 827.56C311.65 844.27 303.24 853.13 291.7 853.9C291.27 853.93 290.84 853.94 290.41 853.95C281.96 882.17 268.2 889.56 257.2 890.29C256.62 890.33 256.03 890.35 255.45 890.35L255.44 890.37Z" fill="white"/>
<path d="M386.4 700.88C387.39 715.79 381.41 728.32 373.02 728.88C370.16 729.07 367.39 727.85 364.95 725.56C364.3 724.96 363.25 725.38 363.22 726.26C362.54 749.88 358.18 766.81 351.8 767.23C348.76 767.43 345.67 763.86 342.87 757.55C342.44 756.58 341 756.83 340.92 757.89C338.82 784.81 332.74 803.24 324.42 803.79C319.07 804.15 313.67 797.06 308.98 784.94C308.58 783.91 307.06 784.14 307 785.25C305.24 816.07 299.19 837.32 290.64 837.89C287.42 838.1 284.15 835.35 281.02 830.21C280.52 829.4 279.28 829.64 279.13 830.58C275.15 856.33 266.81 873.56 256.13 874.27C244.66 875.03 233.34 856.54 225.96 828.3C225.7 827.3 224.29 827.27 223.99 828.26C221.2 837.37 217.58 842.75 213.33 843.03C204.78 843.6 195.96 823.34 190.13 793.02C189.92 791.93 188.39 791.9 188.13 792.98C185.09 805.61 180.67 813.36 175.32 813.71C166.99 814.26 158.53 796.8 152.88 770.4C152.66 769.36 151.2 769.3 150.9 770.32C148.96 776.95 146.37 780.9 143.33 781.1C136.69 781.54 129.85 764 126.13 739.17C125.98 738.19 124.68 737.94 124.19 738.81C121.8 743.1 118.49 745.82 114.69 746.07C106.3 746.63 98.7 735 97.7 720.09C96.71 705.19 102.7 692.65 111.09 692.1C114.89 691.85 118.53 694.11 121.47 698.04C122.06 698.83 123.33 698.41 123.34 697.42C123.73 672.32 128.19 654.01 134.83 653.57C138.79 653.31 142.84 659.45 146.23 669.72C146.57 670.75 148.07 670.62 148.22 669.54C151 649.25 156.43 636.04 163.46 635.57C171.29 635.05 179.24 650.47 184.86 674.28C185.11 675.36 186.66 675.31 186.86 674.22C189.8 658.09 194.48 648.06 200.32 647.67C209 647.09 217.95 667.99 223.78 699.07C223.97 700.09 225.4 700.22 225.75 699.24C230.16 686.9 236.14 679.38 243.13 678.91C248.84 678.53 254.52 682.92 259.68 690.91C260.22 691.74 261.5 691.43 261.57 690.44C263.66 662.2 269.53 643.07 277.63 642.53C283.47 642.14 289.43 651.46 294.48 667.06C294.82 668.12 296.36 667.96 296.47 666.86C298.88 642.52 304.72 626.18 312.55 625.66C319.58 625.19 326.7 637.56 332.16 657.31C332.45 658.36 333.95 658.29 334.15 657.22C336.16 646.59 339.35 639.96 343.31 639.7C349.69 639.27 356.26 655.49 360.06 678.81C360.2 679.68 361.31 679.96 361.87 679.28C363.99 676.69 366.58 675.1 369.43 674.91C377.82 674.35 385.41 685.98 386.41 700.88H386.4Z" fill="#222222"/>
<path d="M577.51 659.29L555.92 662.16L553.64 645.12L535.48 647.55L532.99 628.95L514.82 631.37L512.65 615.1L494.49 617.52L476.06 479.51L494.22 477.09L491.84 459.26L510.01 456.84L507.73 439.79L525.91 437.36L523.42 418.76L545.01 415.88L543.07 401.44L667.18 384.86L669.11 399.31L690.69 396.43L693.17 415.03L710.51 412.71L712.79 429.76L730.96 427.33L733.34 445.16L753.16 442.51L771.59 580.52L751.76 583.17L753.94 599.44L735.77 601.87L738.26 620.47L720.91 622.79L723.19 639.84L701.61 642.72L703.54 657.16L579.44 673.73L577.51 659.29Z" fill="white"/>
<path d="M733.72 569.38L753.54 566.73L739.36 460.55L719.54 463.2L717.16 445.37L698.99 447.8L696.71 430.75L679.37 433.07L676.89 414.47L655.31 417.35L653.38 402.91L561.11 415.23L563.04 429.67L541.46 432.55L543.94 451.15L525.77 453.58L528.05 470.62L509.88 473.05L512.26 490.88L494.1 493.3L508.28 599.48L526.44 597.06L528.61 613.33L546.78 610.9L549.26 629.5L567.42 627.07L569.7 644.12L591.28 641.24L593.21 655.68L685.48 643.36L683.55 628.92L705.13 626.04L702.85 609L720.19 606.68L717.71 588.08L735.87 585.65L733.7 569.38H733.72ZM694.03 542.74L685.98 543.82L689.17 567.76L675.64 569.57L583.36 581.89L565.51 584.27L562.32 560.33L558.58 560.83L540.42 563.26L539.23 554.34L537.23 539.33L555.39 536.9L559.12 536.4L562.32 560.33L580.17 557.95L672.44 545.63L685.98 543.83L682.78 519.9L690.84 518.83L704.69 516.98L707.89 540.91L694.04 542.76L694.03 542.74ZM669.89 496.42L665.94 496.95L647.99 499.35L644.51 473.23L642.47 457.98L660.42 455.58L664.37 455.05L666.41 470.3L669.89 496.42ZM591.49 506.89L573.67 509.27L569.59 509.81L566.1 483.68L564.06 468.43L568.15 467.89L585.96 465.51L588 480.76L591.49 506.89Z" fill="#222222"/>
</svg>
