<svg width="131" height="134" viewBox="0 0 131 134" fill="none" xmlns="http://www.w3.org/2000/svg">
<path d="M82.4425 21.5908C82.5089 21.542 82.5421 21.5177 82.5729 21.5166C82.5998 21.5156 82.6259 21.5256 82.6454 21.5442C82.6677 21.5654 82.6764 21.6057 82.6936 21.6862L86.6882 40.3259L105.751 40.233C105.833 40.2326 105.874 40.2324 105.9 40.2496C105.922 40.2646 105.938 40.288 105.942 40.3145C105.948 40.3448 105.931 40.3825 105.898 40.4578L98.1735 57.8856L113.65 69.0151C113.717 69.0632 113.75 69.0873 113.761 69.1162C113.77 69.1415 113.769 69.1695 113.757 69.1937C113.744 69.2215 113.708 69.2422 113.637 69.2835L97.144 78.8425L103.123 96.9435C103.149 97.0217 103.162 97.0608 103.153 97.0904C103.146 97.1163 103.128 97.1381 103.105 97.1509C103.078 97.1655 103.037 97.1613 102.955 97.1528L83.9929 95.192L78.1906 113.35C78.1656 113.429 78.153 113.468 78.1287 113.487C78.1075 113.504 78.0805 113.511 78.0538 113.507C78.0233 113.503 77.9926 113.476 77.9314 113.421L63.7435 100.689L48.3761 111.969C48.3097 112.018 48.2765 112.042 48.2458 112.043C48.2188 112.044 48.1927 112.034 48.1732 112.015C48.1509 111.994 48.1423 111.954 48.125 111.873L44.1304 93.2337L25.0677 93.3266C24.9854 93.327 24.9442 93.3272 24.9187 93.31C24.8963 93.295 24.881 93.2715 24.8762 93.245C24.8706 93.2147 24.8873 93.1771 24.9207 93.1018L32.6451 75.674L17.1685 64.5445C17.1016 64.4964 17.0682 64.4723 17.0576 64.4434C17.0484 64.4181 17.0498 64.3901 17.0614 64.3659C17.0748 64.3381 17.1104 64.3174 17.1816 64.2761L33.6746 54.7171L27.6955 36.6161C27.6697 36.5379 27.6568 36.4988 27.6653 36.4692C27.6727 36.4433 27.6902 36.4215 27.7139 36.4087C27.741 36.3941 27.782 36.3983 27.8639 36.4068L46.8257 38.3676L52.628 20.2093C52.6531 20.1308 52.6656 20.0916 52.6899 20.0726C52.7111 20.056 52.7381 20.0487 52.7648 20.0523C52.7953 20.0564 52.826 20.0839 52.8873 20.1389L67.0751 32.8707L82.4425 21.5908Z" fill="#EB3663"/>
<g filter="url(#filter0_d_304_819)">
<path d="M82.638 17.5166C83.5992 17.5311 84.5252 17.8829 85.2533 18.5107L85.4064 18.6493L85.5412 18.7841C86.1875 19.4617 86.4195 20.1766 86.4899 20.4026C86.5361 20.5509 86.5649 20.6733 86.5775 20.7274L86.605 20.8475L89.9184 36.3091L105.731 36.2321L105.854 36.2329C105.91 36.2336 106.036 36.2354 106.19 36.2487C106.442 36.2704 107.276 36.3529 108.135 36.9315C108.993 37.51 109.599 38.3907 109.835 39.3935L109.877 39.5955L109.907 39.7835C110.032 40.7114 109.8 41.4263 109.724 41.6508C109.674 41.7981 109.625 41.9143 109.603 41.9653C109.581 42.0179 109.558 42.0687 109.554 42.0783L103.147 56.5351L115.985 65.7675C115.995 65.7742 116.039 65.8059 116.084 65.8396C116.129 65.8727 116.23 65.9483 116.347 66.0502C116.526 66.2053 117.088 66.7047 117.45 67.5685L117.519 67.7463L117.585 67.9416C117.888 68.9258 117.811 69.9915 117.363 70.9246C116.915 71.8578 116.237 72.3509 116.031 72.4972C115.904 72.587 115.796 72.6528 115.749 72.6815C115.7 72.7107 115.652 72.738 115.643 72.7435L101.961 80.6731L106.921 95.6887L106.959 95.8055C106.976 95.8586 107.012 95.9794 107.047 96.1307C107.101 96.3618 107.262 97.0958 107.047 98.0068L106.999 98.1911L106.936 98.3879C106.604 99.3625 105.915 100.179 105.004 100.671C104.093 101.163 103.254 101.163 103.001 101.16C102.846 101.158 102.72 101.148 102.665 101.143C102.609 101.138 102.555 101.132 102.543 101.131L86.814 99.5034L82.0003 114.567C81.9971 114.577 81.9803 114.63 81.962 114.684C81.9442 114.737 81.9038 114.856 81.8432 114.999C81.7447 115.232 81.4083 116 80.5927 116.637C79.7229 117.318 78.6149 117.618 77.5207 117.471C76.4943 117.334 75.8158 116.841 75.6133 116.69C75.489 116.597 75.3939 116.515 75.3519 116.479C75.3092 116.442 75.2679 116.405 75.2595 116.398L63.4905 105.836L50.743 115.193C50.7346 115.199 50.6893 115.232 50.6427 115.265C50.5974 115.297 50.4945 115.369 50.3615 115.449C50.1452 115.58 49.422 116.004 48.387 116.04C47.2836 116.079 46.2109 115.671 45.412 114.909C44.6625 114.195 44.4028 113.397 44.3276 113.156C44.2814 113.007 44.2526 112.885 44.24 112.831C44.2272 112.776 44.2158 112.722 44.2135 112.711L40.8995 97.2485L25.087 97.3267C25.0765 97.3267 25.0212 97.3266 24.9641 97.3259C24.9087 97.3252 24.7825 97.3231 24.6275 97.3098C24.3757 97.288 23.5415 97.2056 22.6827 96.6269C21.7671 96.0099 21.1396 95.0494 20.9413 93.9633C20.7552 92.9446 21.0136 92.1475 21.0946 91.9081C21.1444 91.7607 21.1927 91.6442 21.2143 91.5931C21.2365 91.5405 21.2592 91.4898 21.2635 91.4802L27.6711 77.0225L14.833 67.7913C14.8245 67.7851 14.7789 67.7529 14.7331 67.7188C14.6885 67.6856 14.5877 67.6099 14.4705 67.5082C14.2794 67.3425 13.6538 66.7853 13.2993 65.8125C12.9213 64.7752 12.9775 63.6295 13.4554 62.6342L13.5419 62.4644C13.9864 61.6404 14.5942 61.1986 14.7876 61.0616C14.9146 60.9717 15.0223 60.9059 15.0697 60.8773C15.1186 60.8479 15.1667 60.8206 15.1758 60.8153L28.8559 52.8851L23.8976 37.8701C23.8943 37.8602 23.8764 37.8078 23.8594 37.7533C23.843 37.7004 23.8061 37.5797 23.7709 37.4281C23.7138 37.1819 23.5347 36.3632 23.8197 35.3677C24.1236 34.3063 24.8426 33.4125 25.8142 32.8882L25.9841 32.8013C26.8278 32.3962 27.579 32.3957 27.8161 32.3986C27.9712 32.4004 28.0969 32.4108 28.1523 32.4156C28.2092 32.4205 28.2647 32.4267 28.2751 32.4278L44.0038 34.0541L48.8173 18.9915C48.8205 18.9815 48.8372 18.9285 48.8555 18.8744C48.8733 18.8219 48.9146 18.7028 48.9752 18.5595C49.0737 18.3267 49.41 17.5593 50.2258 16.9213L50.3916 16.7984C51.2339 16.2055 52.271 15.9492 53.2969 16.087C54.3232 16.2248 55.0016 16.7174 55.2042 16.8684C55.329 16.9614 55.4246 17.0436 55.4665 17.0799L55.5589 17.161L67.3274 27.722L80.0754 18.3656L80.1748 18.2936C80.22 18.2617 80.3229 18.1893 80.456 18.1091C80.6723 17.9787 81.3963 17.5551 82.4315 17.5185L82.638 17.5166ZM82.573 21.5162C82.5422 21.5173 82.5087 21.5421 82.4423 21.5908L67.0744 32.8704L52.8873 20.1384C52.826 20.0834 52.795 20.0561 52.7644 20.052C52.7379 20.0485 52.7112 20.0555 52.69 20.0718C52.6658 20.0908 52.6526 20.1305 52.6275 20.2089L46.8253 38.3674L27.8639 36.4066C27.7823 36.3981 27.741 36.3936 27.7139 36.4081C27.6902 36.4209 27.6721 36.4429 27.6647 36.4688C27.6563 36.4984 27.67 36.5373 27.6957 36.6153L33.6739 54.7164L17.1815 64.2762C17.1104 64.3174 17.0743 64.3375 17.061 64.3652C17.0493 64.3895 17.0482 64.4179 17.0574 64.4432C17.0681 64.472 17.1019 64.4961 17.1685 64.544L32.6449 75.6734L24.9203 93.1011C24.8869 93.1764 24.8705 93.2148 24.876 93.2451C24.8785 93.2581 24.8836 93.2701 24.8906 93.281L24.9185 93.3093C24.9312 93.3179 24.9477 93.3221 24.9713 93.3242L25.0677 93.3263L44.1299 93.2329L48.1251 111.873C48.1424 111.953 48.151 111.994 48.1733 112.015C48.1829 112.024 48.194 112.031 48.2061 112.036L48.2454 112.043C48.2608 112.042 48.2771 112.036 48.2975 112.024L48.3762 111.968L63.7432 100.688L77.9312 113.42C77.9617 113.448 77.9846 113.468 78.0037 113.482L78.054 113.507C78.0672 113.508 78.0802 113.507 78.0928 113.504L78.1284 113.487C78.1527 113.468 78.165 113.428 78.19 113.35L83.9931 95.1914L102.955 97.1522C102.995 97.1565 103.026 97.1599 103.05 97.1602L103.105 97.1507C103.128 97.138 103.145 97.1156 103.153 97.0897C103.161 97.0601 103.148 97.0213 103.123 96.9435L97.1437 78.842L113.329 69.4602L113.637 69.2826C113.672 69.2621 113.699 69.2469 113.718 69.2331L113.757 69.1933C113.768 69.169 113.77 69.1409 113.761 69.1156C113.756 69.1011 113.744 69.0878 113.726 69.0721L113.65 69.0148L98.1735 57.8854L105.897 40.4574C105.931 40.3821 105.948 40.344 105.942 40.3137C105.938 40.2875 105.922 40.2645 105.9 40.2495C105.874 40.2323 105.833 40.2321 105.751 40.2325L86.6877 40.3256L82.6933 21.6862C82.6761 21.6057 82.6674 21.5649 82.6452 21.5436C82.6258 21.5251 82.5998 21.5154 82.573 21.5162ZM28.5772 94.722C28.5801 94.7151 28.5835 94.7073 28.5871 94.6986L28.5772 94.722Z" fill="#FFFFF8"/>
</g>
<path d="M70.2066 76.6268L70.9953 61.7988L75.0849 63.3533L74.2577 71.9609L74.3124 71.9817L79.43 65.0049L82.7162 66.2541L81.9073 74.8686L81.9621 74.8894L87.0613 67.9057L91.1508 69.4602L81.891 81.0681L78.1301 79.6386L78.8126 71.6864L78.7396 71.6586L73.9675 78.0563L70.2066 76.6268Z" fill="black"/>
<path d="M55.7835 71.1442L60.8078 57.9263L69.6806 61.2989L68.3205 64.8773L63.2451 62.948L62.6899 64.4086L67.2541 66.1435L66.0605 69.2837L61.4963 67.5488L60.9411 69.0093L66.1626 70.994L64.8024 74.5724L55.7835 71.1442Z" fill="black"/>
<path d="M41.2513 65.6203L46.2756 52.4023L50.5112 54.0123L52.0856 62.8433L52.1586 62.871L54.8928 55.6778L58.6902 57.1213L53.6659 70.3392L49.4304 68.7292L47.929 59.9261L47.7829 59.8705L45.0487 67.0637L41.2513 65.6203Z" fill="black"/>
<defs>
<filter id="filter0_d_304_819" x="11.0515" y="14.0508" width="108.715" height="105.457" filterUnits="userSpaceOnUse" color-interpolation-filters="sRGB">
<feFlood flood-opacity="0" result="BackgroundImageFix"/>
<feColorMatrix in="SourceAlpha" type="matrix" values="0 0 0 0 0 0 0 0 0 0 0 0 0 0 0 0 0 0 127 0" result="hardAlpha"/>
<feOffset/>
<feGaussianBlur stdDeviation="1"/>
<feComposite in2="hardAlpha" operator="out"/>
<feColorMatrix type="matrix" values="0 0 0 0 0 0 0 0 0 0 0 0 0 0 0 0 0 0 0.2 0"/>
<feBlend mode="normal" in2="BackgroundImageFix" result="effect1_dropShadow_304_819"/>
<feBlend mode="normal" in="SourceGraphic" in2="effect1_dropShadow_304_819" result="shape"/>
</filter>
</defs>
</svg>
