<svg width="95" height="96" viewBox="0 0 95 96" fill="none" xmlns="http://www.w3.org/2000/svg">
<g filter="url(#filter0_d_304_820)">
<path d="M78.4756 36.7038C72.3388 19.2497 53.4257 10.0009 36.2321 16.0461C19.0385 22.0913 10.0752 41.1413 16.212 58.5954C22.3488 76.0496 41.2618 85.2983 58.4554 79.2531C75.6491 73.2079 84.6124 54.1579 78.4756 36.7038ZM82.2491 35.377C89.0998 54.8616 79.1132 76.23 59.7822 83.0267C40.4512 89.8234 19.2891 79.4067 12.4384 59.9222C5.58775 40.4377 15.5744 19.0693 34.9054 12.2726C54.2363 5.47588 75.3985 15.8925 82.2491 35.377Z" fill="#FFFFF8"/>
</g>
<path d="M78.4754 36.7038C84.6122 54.1579 75.6488 73.2079 58.4552 79.2531C41.2616 85.2983 22.3486 76.0496 16.2118 58.5954C10.075 41.1413 19.0383 22.0913 36.2319 16.0461C53.4255 10.0009 72.3386 19.2497 78.4754 36.7038Z" fill="#95DE69"/>
<path d="M39.1436 65.9024C38.3404 66.1848 37.4585 66.1373 36.6915 65.7708C35.9245 65.4044 35.3353 64.749 35.0538 63.9484L31.3389 53.3825C31.0574 52.5819 31.1068 51.702 31.4757 50.9362C31.8445 50.1703 32.5027 49.5813 33.3059 49.2989L36.9029 48.0342C37.4248 47.8507 37.9965 48.1258 38.1787 48.6482L43.3178 63.3773C43.4995 63.8979 43.2255 64.4673 42.7053 64.6501L39.1436 65.9024Z" fill="#222222"/>
<path d="M41.3477 31.8358C41.3797 31.4423 41.6387 31.0952 42.0253 31.0153C43.0511 30.8035 44.1242 30.9303 45.0786 31.3863C46.2291 31.9359 47.1129 32.919 47.5351 34.1199L49.3262 39.2142C49.5094 39.7352 50.0803 40.0091 50.6013 39.8259L58.2286 37.1442C58.6657 36.985 59.1321 36.9225 59.5955 36.9609C60.0591 36.9992 60.5086 37.1375 60.9128 37.3664C61.317 37.5954 61.6666 37.9095 61.9367 38.2867C62.2067 38.6638 62.3913 39.0951 62.4775 39.5507L65.1637 53.8703C65.3072 54.6286 65.1718 55.4138 64.7812 56.0809C64.3904 56.7482 63.7708 57.2529 63.0376 57.5014L46.901 63.175C46.3799 63.3582 45.8091 63.0843 45.6259 62.5633L40.1904 47.1039C40.1439 46.9716 40.1257 46.8309 40.1371 46.691L41.3477 31.8358Z" fill="#222222"/>
<defs>
<filter id="filter0_d_304_820" x="8.28027" y="8.19213" width="78.127" height="78.915" filterUnits="userSpaceOnUse" color-interpolation-filters="sRGB">
<feFlood flood-opacity="0" result="BackgroundImageFix"/>
<feColorMatrix in="SourceAlpha" type="matrix" values="0 0 0 0 0 0 0 0 0 0 0 0 0 0 0 0 0 0 127 0" result="hardAlpha"/>
<feOffset/>
<feGaussianBlur stdDeviation="1"/>
<feComposite in2="hardAlpha" operator="out"/>
<feColorMatrix type="matrix" values="0 0 0 0 0 0 0 0 0 0 0 0 0 0 0 0 0 0 0.2 0"/>
<feBlend mode="normal" in2="BackgroundImageFix" result="effect1_dropShadow_304_820"/>
<feBlend mode="normal" in="SourceGraphic" in2="effect1_dropShadow_304_820" result="shape"/>
</filter>
</defs>
</svg>
