<svg width="85" height="85" viewBox="0 0 85 85" fill="none" xmlns="http://www.w3.org/2000/svg">
<g filter="url(#filter0_d_304_823)">
<path d="M11.8793 30.3883L30.3883 11.8793C31.9257 10.3419 33.2465 9.01637 34.4204 8.01987C35.6299 6.99307 36.9439 6.08233 38.5594 5.55743C40.9694 4.77441 43.5657 4.77441 45.9757 5.55743C47.5912 6.08233 48.9053 6.99307 50.1148 8.01987C51.2886 9.01637 52.6095 10.3419 54.1468 11.8793L51.3184 14.7077C48.1504 11.5397 46.5663 9.95578 44.7397 9.36227L44.4365 9.27043C42.9167 8.84231 41.3016 8.87289 39.7955 9.36227L39.4557 9.48519C37.7649 10.1598 36.187 11.7375 33.2168 14.7077L14.7077 33.2168L13.5932 34.3341C11.1594 36.7847 9.88162 38.1972 9.36225 39.7955C8.84019 41.4022 8.84021 43.133 9.36225 44.7397C9.95575 46.5663 11.5396 48.1504 14.7077 51.3184L33.2167 69.8275L34.334 70.942C36.7847 73.3758 38.1972 74.6536 39.7955 75.1729C41.4022 75.695 43.1329 75.695 44.7397 75.1729C46.338 74.6536 47.7504 73.3758 50.2011 70.942L51.3184 69.8275L69.8275 51.3184C72.7977 48.3482 74.3754 46.7703 75.05 45.0794L75.1729 44.7397C75.6623 43.2335 75.6929 41.6185 75.2647 40.0986L75.1729 39.7955C74.6535 38.1972 73.3758 36.7847 70.942 34.3341L69.8275 33.2168L72.6559 30.3883C74.1933 31.9257 75.5188 33.2465 76.5153 34.4204C77.5421 35.6299 78.4528 36.9439 78.9777 38.5594C79.7608 40.9695 79.7608 43.5657 78.9777 45.9758C78.4528 47.5912 77.5421 48.9053 76.5153 50.1148C75.5188 51.2886 74.1932 52.6095 72.6559 54.1468L54.1468 72.6559C52.6094 74.1933 51.2886 75.5188 50.1148 76.5153C48.9052 77.5422 47.5913 78.4528 45.9757 78.9778C43.5657 79.7608 40.9695 79.7608 38.5594 78.9778C36.9439 78.4528 35.6299 77.5422 34.4204 76.5153C33.2465 75.5188 31.9257 74.1933 30.3883 72.6559L11.8793 54.1468C10.3419 52.6095 9.01635 51.2886 8.01986 50.1148C6.99305 48.9053 6.08231 47.5912 5.55741 45.9758C4.7744 43.5657 4.77436 40.9695 5.55741 38.5594C6.08233 36.9439 6.99301 35.6299 8.01986 34.4204C9.01637 33.2465 10.3419 31.9257 11.8793 30.3883ZM72.6559 30.3883L69.8275 33.2168L51.3184 14.7077L54.1468 11.8793L72.6559 30.3883Z" fill="#FFFFF8"/>
</g>
<path d="M33.2166 14.7077C36.3847 11.5396 37.9688 9.9555 39.7954 9.36199C41.4022 8.83993 43.133 8.83993 44.7397 9.36199C46.5663 9.9555 48.1504 11.5396 51.3185 14.7077L69.8274 33.2166C72.9956 36.3847 74.5797 37.9688 75.1732 39.7954C75.6952 41.4022 75.6952 43.133 75.1732 44.7397C74.5797 46.5663 72.9956 48.1504 69.8275 51.3185L51.3185 69.8274C48.1504 72.9956 46.5663 74.5797 44.7397 75.1732C43.133 75.6952 41.4022 75.6952 39.7954 75.1732C37.9688 74.5797 36.3847 72.9956 33.2166 69.8275L14.7077 51.3186C11.5396 48.1504 9.9555 46.5663 9.36199 44.7397C8.83993 43.133 8.83993 41.4022 9.36199 39.7954C9.9555 37.9688 11.5396 36.3847 14.7077 33.2166L33.2166 14.7077Z" fill="#FCE238"/>
<path d="M61.4374 49.8421H58.8677V44.2505H61.4374V49.8421ZM60.1526 53.0304C59.3317 53.0304 58.7368 52.4713 58.7368 51.7218C58.7368 50.9723 59.3317 50.4131 60.1526 50.4131C60.9615 50.4131 61.5683 50.9723 61.5683 51.7218C61.5683 52.4713 60.9615 53.0304 60.1526 53.0304Z" fill="#222222"/>
<path d="M51.3608 52.8639V44.2505H57.1428V46.5823H53.8354V47.534H56.8096V49.5803H53.8354V50.5321H57.2379V52.8639H51.3608Z" fill="#222222"/>
<path d="M41.8911 52.8639V44.2505H44.6512L47.4589 48.9379H47.5065V44.2505H49.981V52.8639H47.2209L44.4609 48.1765H44.3657V52.8639H41.8911Z" fill="#222222"/>
<path d="M36.2995 53.0305C33.706 53.0305 31.7549 51.1151 31.7549 48.5572C31.7549 45.9994 33.706 44.084 36.2995 44.084C38.8931 44.084 40.8442 45.9994 40.8442 48.5572C40.8442 51.1151 38.8931 53.0305 36.2995 53.0305ZM36.2995 50.6987C37.5011 50.6987 38.3696 49.8064 38.3696 48.5572C38.3696 47.3081 37.5011 46.4158 36.2995 46.4158C35.0979 46.4158 34.2294 47.3081 34.2294 48.5572C34.2294 49.8064 35.0979 50.6987 36.2995 50.6987Z" fill="#222222"/>
<path d="M23.2603 52.8639V44.2505H26.2226C29.1136 44.2505 31.0409 45.9755 31.0409 48.5572C31.0409 51.1388 29.1136 52.8639 26.2226 52.8639H23.2603ZM25.7348 50.5321H26.2226C27.6978 50.5321 28.5663 49.8064 28.5663 48.5572C28.5663 47.308 27.6978 46.5823 26.2226 46.5823H25.7348V50.5321Z" fill="#222222"/>
<path d="M53.5264 40.6813V32.0679H56.0009V38.3495H59.2131V40.6813H53.5264Z" fill="#222222"/>
<path d="M46.626 40.6813V32.0679H49.1005V38.3495H52.3127V40.6813H46.626Z" fill="#222222"/>
<path d="M39.4639 40.6813V32.0679H45.2458V34.3997H41.9384V35.3514H44.9127V37.3977H41.9384V38.3495H45.341V40.6813H39.4639Z" fill="#222222"/>
<path d="M28.2332 40.6813L25.4731 32.0679H28.1381L29.53 37.1479H29.5657L30.9695 32.0679H33.111L34.5148 37.1479H34.5505L35.9425 32.0679H38.6074L35.8473 40.6813H33.3965L32.0641 36.0058H32.0165L30.684 40.6813H28.2332Z" fill="#222222"/>
<defs>
<filter id="filter0_d_304_823" x="2.97021" y="2.97021" width="78.5947" height="78.5947" filterUnits="userSpaceOnUse" color-interpolation-filters="sRGB">
<feFlood flood-opacity="0" result="BackgroundImageFix"/>
<feColorMatrix in="SourceAlpha" type="matrix" values="0 0 0 0 0 0 0 0 0 0 0 0 0 0 0 0 0 0 127 0" result="hardAlpha"/>
<feOffset/>
<feGaussianBlur stdDeviation="1"/>
<feComposite in2="hardAlpha" operator="out"/>
<feColorMatrix type="matrix" values="0 0 0 0 0 0 0 0 0 0 0 0 0 0 0 0 0 0 0.2 0"/>
<feBlend mode="normal" in2="BackgroundImageFix" result="effect1_dropShadow_304_823"/>
<feBlend mode="normal" in="SourceGraphic" in2="effect1_dropShadow_304_823" result="shape"/>
</filter>
</defs>
</svg>
